<?xml version="1.0" standalone="no"?>
<!DOCTYPE svg PUBLIC "-//W3C//DTD SVG 1.1//EN" "http://www.w3.org/Graphics/SVG/1.1/DTD/svg11.dtd" >
<svg xmlns="http://www.w3.org/2000/svg">
<metadata>Generated by IcoMoon</metadata>
<defs>
<font id="lucid-icons" horiz-adv-x="1024">
<font-face units-per-em="1024" ascent="960" descent="-64" />
<missing-glyph horiz-adv-x="1024" />
<glyph unicode="&#x20;" horiz-adv-x="512" d="" />
<glyph unicode="&#xe900;" glyph-name="alert" d="M928.428 272.853l-273.067 491.52c-36.693 66.133-87.469 102.4-143.362 102.4s-106.667-36.267-143.36-102.4l-273.067-491.52c-34.56-62.72-38.4-122.88-10.667-170.24s82.347-73.387 154.027-73.387h546.136c71.68 0 126.293 26.027 154.027 73.387s23.893 107.947-10.667 170.24zM479.999 568.106c0 17.493 14.507 32 32 32s32-14.507 32-32v-213.333c0-17.493-14.507-32-32-32s-32 14.507-32 32v213.333zM542.292 196.479c-2.133-1.707-4.267-3.413-6.4-5.12-2.56-1.707-5.12-2.987-7.68-3.84-2.56-1.28-5.12-2.133-8.107-2.56-2.56-0.427-5.547-0.853-8.107-0.853s-5.547 0.427-8.533 0.853c-2.56 0.427-5.12 1.28-7.68 2.56-2.56 0.853-5.12 2.133-7.68 3.84-2.133 1.707-4.267 3.413-6.4 5.12-7.68 8.107-12.373 19.2-12.373 30.293s4.693 22.187 12.373 30.293c2.133 1.707 4.267 3.413 6.4 5.12 2.56 1.707 5.12 2.987 7.68 3.84 2.56 1.28 5.12 2.133 7.68 2.56 5.547 1.28 11.52 1.28 16.64 0 2.987-0.427 5.547-1.28 8.107-2.56 2.56-0.853 5.12-2.133 7.68-3.84 2.133-1.707 4.267-3.413 6.4-5.12 7.68-8.107 12.373-19.2 12.373-30.293s-4.693-22.187-12.373-30.293z" />
<glyph unicode="&#xe901;" glyph-name="arrow-right-filled" d="M512 874.667c-235.52 0-426.667-191.146-426.667-426.668 0-235.52 191.147-426.665 426.667-426.665 235.518 0 426.668 191.145 426.668 426.665s-191.15 426.668-426.668 426.668zM683.948 425.39l-128-128c-6.4-6.4-14.51-9.39-22.615-9.39s-16.215 2.99-22.613 9.39c-12.374 12.37-12.374 32.85 0 45.225l73.388 73.385h-221.442c-17.494 0-32 14.51-32 32 0 17.494 14.506 32.001 32 32.001h221.442l-73.388 73.386c-12.374 12.374-12.374 32.854 0 45.226s32.853 12.374 45.228 0l128-128c12.37-12.373 12.37-32.854 0-45.224z" />
<glyph unicode="&#xe902;" glyph-name="attach-square" d="M400.51 645.891c85.647 85.101 223.904 85.256 309.267-0.108l0.109-0.109c85.101-85.647 85.261-223.903-0.109-309.267l-94.72-94.715c0 0 0.001 0 0 0-52.025-52.026-136.604-52.026-188.629 0s-52.025 136.599 0 188.625l60.162 60.16c18.746 18.745 49.137 18.745 67.882-0.001s18.744-49.137-0.001-67.882l-60.161-60.159c0 0 0.001 0 0 0-14.534-14.535-14.534-38.328 0-52.864 14.535-14.534 38.33-14.534 52.865 0l94.724 94.719c0 0 0-0.001 0 0 47.731 47.737 47.91 125.334-0.058 173.664-47.74 47.686-125.302 47.84-173.615-0.111l-103.195-103.194c-38.428-38.429-38.429-100.624 0.001-139.054 18.745-18.747 18.744-49.134-0.001-67.88s-49.137-18.746-67.882 0c-75.919 75.918-75.919 198.897 0 274.816l103.361 103.361zM120.727 839.275c61.405 61.406 151.873 83.393 263.274 83.393h256.003c111.398 0 201.869-21.986 263.27-83.393 61.408-61.406 83.392-151.874 83.392-263.274v-256c0-111.404-21.984-201.868-83.392-263.276-61.402-61.408-151.872-83.392-263.27-83.392h-256.003c-111.401 0-201.868 21.984-263.274 83.392s-83.392 151.872-83.392 263.276v256c0 111.401 21.986 201.868 83.392 263.274zM188.609 771.393c-34.594-34.594-55.274-93.46-55.274-195.392v-256c0-101.932 20.68-160.799 55.274-195.391 34.594-34.598 93.459-55.277 195.392-55.277h256.003c101.933 0 160.794 20.678 195.392 55.27 34.592 34.598 55.27 93.466 55.27 195.397v256c0 101.932-20.678 160.799-55.277 195.393-34.592 34.594-93.453 55.274-195.386 55.274h-256.003c-101.933 0-160.798-20.681-195.392-55.275z" />
<glyph unicode="&#xe903;" glyph-name="bullet_list" d="M344 768c0 26.509 21.491 48 48 48h512c26.509 0 48-21.491 48-48s-21.491-48-48-48h-512c-26.509 0-48 21.491-48 48zM344 448c0 26.509 21.491 48 48 48h512c26.509 0 48-21.491 48-48s-21.491-48-48-48h-512c-26.509 0-48 21.491-48 48zM344 128c0 26.509 21.491 48 48 48h511.949c26.509 0 48-21.491 48-48s-21.491-48-48-48h-511.949c-26.509 0-48 21.491-48 48zM168 352c53.020 0 96 42.98 96 96s-42.98 96-96 96c-53.020 0-96-42.98-96-96s42.98-96 96-96zM168 32c53.020 0 96 42.982 96 96s-42.98 96-96 96c-53.020 0-96-42.982-96-96s42.98-96 96-96zM168 672c53.020 0 96 42.98 96 96s-42.98 96-96 96c-53.020 0-96-42.98-96-96s42.98-96 96-96z" />
<glyph unicode="&#xe904;" glyph-name="calendar" d="M341.344 922.667c26.509 0 48-21.49 48-48v-128c0-26.51-21.491-48-48-48s-48 21.49-48 48v128c0 26.51 21.49 48 48 48zM682.656 922.667c26.509 0 48-21.49 48-48v-128c0-26.51-21.491-48-48-48s-48 21.49-48 48v128c0 26.51 21.491 48 48 48zM101.344 572.151c0 26.509 21.49 48 48 48h725.331c26.509 0 48-21.491 48-48s-21.491-48-48-48h-725.331c-26.51 0-48 21.491-48 48zM213.841 719.338c-23.673-25.494-37.841-65.363-37.841-122.005v-362.669c0-56.64 14.168-96.512 37.841-122.003 23.075-24.851 61.974-43.328 127.492-43.328h341.336c65.517 0 104.416 18.477 127.488 43.328 23.674 25.491 37.843 65.363 37.843 122.003v362.669c0 56.642-14.17 96.511-37.843 122.005-23.072 24.851-61.971 43.329-127.488 43.329h-341.336c-65.517 0-104.417-18.478-127.492-43.329zM143.492 784.662c46.258 49.816 114.025 74.005 197.841 74.005h341.336c83.814 0 151.584-24.189 197.837-74.006 45.664-49.172 63.494-115.97 63.494-187.328v-362.669c0-71.36-17.83-138.157-63.494-187.328-46.253-49.818-114.022-74.003-197.837-74.003h-341.336c-83.815 0-151.582 24.186-197.841 74.003-45.66 49.171-63.492 115.968-63.492 187.328v362.669c0 71.358 17.832 138.156 63.492 187.329zM605.599 311.413c0 35.347 28.654 64.001 64.001 64.001h0.384c35.347 0 64-28.654 64-64.001s-28.653-64-64-64h-0.384c-35.347 0-64.001 28.653-64.001 64zM447.85 311.413c0 35.347 28.654 64.001 64 64.001h0.383c35.346 0 64-28.654 64-64.001s-28.654-64-64-64h-0.383c-35.346 0-64 28.653-64 64zM289.85 311.413c0 35.347 28.654 64.001 64 64.001h0.383c35.346 0 64-28.654 64-64.001s-28.654-64-64-64h-0.383c-35.346 0-64 28.653-64 64z" />
<glyph unicode="&#xe905;" glyph-name="call" d="M472.103 322.131l-78.934-78.935c-16.64-16.64-43.093-16.64-60.16-0.425-4.693 4.695-9.386 8.96-14.080 13.655-43.946 44.37-83.626 90.88-119.040 139.52-34.986 48.64-63.146 97.277-83.626 145.491-20.054 48.64-30.294 95.146-30.294 139.52 0 29.014 5.12 56.746 15.36 82.346 10.24 26.027 26.454 49.92 49.067 71.254 27.306 26.88 57.173 40.106 88.746 40.106 11.946 0 23.894-2.56 34.56-7.68 11.094-5.12 20.906-12.8 28.586-23.893l98.987-139.52c7.68-10.667 13.226-20.48 17.066-29.867 3.84-8.96 5.974-17.92 5.974-26.026 0-10.24-2.987-20.48-8.96-30.294-5.547-9.813-13.654-20.053-23.894-30.293l-32.426-33.707c-4.694-4.693-6.827-10.24-6.827-17.066 0-3.414 0.427-6.4 1.28-9.814 1.28-3.413 2.56-5.973 3.414-8.533 7.68-14.080 20.906-32.427 39.68-54.614 19.2-22.186 39.68-44.801 61.866-67.411 4.267-4.27 8.96-8.535 13.227-12.8 17.066-16.64 17.493-43.95 0.426-61.015zM938.030 177.921c0-11.945-2.13-24.32-6.4-36.265-1.28-3.415-2.56-6.825-4.265-10.24-7.255-15.36-16.64-29.865-29.015-43.52-20.905-23.040-43.945-39.68-69.97-50.345-0.43 0-0.855-0.43-1.28-0.43-25.175-10.24-52.48-15.785-81.92-15.785-43.52 0-90.030 10.24-139.095 31.145-49.065 20.91-98.134 49.070-146.774 84.48-16.64 12.375-33.28 24.75-49.066 37.975l139.52 139.52c11.945-8.96 22.615-15.785 31.575-20.48 2.13-0.855 4.69-2.135 7.68-3.415 3.41-1.28 6.825-1.705 10.665-1.705 7.255 0 12.8 2.56 17.495 7.255l32.425 32c10.665 10.665 20.905 18.77 30.72 23.89 9.815 5.975 19.625 8.96 30.295 8.96 8.105 0 16.64-1.705 26.025-5.545s19.2-9.385 29.865-16.64l141.23-100.265c11.090-7.68 18.77-16.64 23.465-27.31 4.265-10.665 6.825-21.33 6.825-33.28z" />
<glyph unicode="&#xe906;" glyph-name="capsule" d="M209.189 461.166c-87.255-87.252-87.255-228.723 0-315.978s228.723-87.255 315.975 0l144.824 144.824-315.976 315.976-144.823-144.823zM787.662 723.659c-72.259 72.259-189.42 72.258-261.673 0.001l-117.67-117.671 261.67-261.668 117.673 117.669c72.259 72.256 72.259 189.41 0 261.669zM615.681 290.012l-261.668 261.67-117.67-117.67c-72.258-72.253-72.259-189.414 0-261.673s189.413-72.259 261.669 0l117.67 117.673zM326.86 633.141l144.822 144.823c0 0 0 0 0 0 102.25 102.251 268.031 102.25 370.282 0.001 102.252-102.251 102.252-268.032 0-370.279 0 0 0 0 0 0l-289.649-289.649c0 0 0 0 0 0-102.247-102.252-268.028-102.252-370.279 0s-102.251 268.032 0 370.282zM182.036 488.318l144.823 144.823z" />
<glyph unicode="&#xe907;" glyph-name="clock" d="M512.001 960c-282.112 0-511.999-229.887-511.999-511.999s229.887-512.001 511.999-512.001c282.114 0 511.998 229.889 511.998 512.001s-229.883 511.999-511.998 511.999zM734.721 265.22c-7.17-12.288-19.968-18.948-33.282-18.948-6.654 0-13.308 1.536-19.452 5.634l-158.723 94.722c-39.423 23.55-68.608 75.262-68.608 120.829v209.92c0 20.992 17.407 38.4 38.4 38.4s38.4-17.408 38.4-38.4v-209.92c0-18.432 15.36-45.568 31.231-54.784l158.719-94.719c18.432-10.752 24.576-34.302 13.314-52.734z" />
<glyph unicode="&#xe908;" glyph-name="code-circle" d="M375.264 567.265c18.745-18.745 18.745-49.137 0-67.882l-51.392-51.392 51.392-51.392c18.745-18.745 18.745-49.137 0-67.882-18.745-18.743-49.137-18.743-67.882 0l-85.333 85.333c-18.745 18.746-18.745 49.137 0 67.882l85.333 85.333c18.745 18.746 49.137 18.746 67.882 0zM648.707 567.266c18.746 18.745 49.139 18.744 67.878-0.001l85.331-85.333c18.746-18.746 18.746-49.137 0-67.882l-85.331-85.333c-18.739-18.744-49.133-18.744-67.878-0.001-18.747 18.745-18.747 49.137 0 67.882l51.392 51.392-51.392 51.393c-18.747 18.745-18.747 49.137 0 67.882zM37.334 448.001c0 262.151 212.515 474.667 474.666 474.667 262.153 0 474.665-212.516 474.665-474.667 0-262.149-212.512-474.668-474.665-474.668-262.152 0-474.666 212.518-474.666 474.668zM512 826.668c-209.132 0-378.666-169.535-378.666-378.667s169.534-378.668 378.666-378.668c209.135 0 378.665 169.536 378.665 378.668s-169.53 378.667-378.665 378.667zM573.597 591.511c24.361-10.455 35.634-38.679 25.179-63.040l-85.333-198.828c-10.456-24.36-38.68-35.631-63.040-25.18-24.361 10.458-35.634 38.68-25.179 63.041l85.333 198.828c10.456 24.361 38.68 35.633 63.040 25.178z" />
<glyph unicode="&#xe909;" glyph-name="cross" d="M228.847 731.153c14.996 14.996 39.31 14.996 54.306 0l228.847-228.847 228.849 228.847c14.996 14.996 39.306 14.996 54.303 0s14.996-39.31 0-54.306l-228.844-228.847 228.844-228.849c14.996-14.996 14.996-39.306 0-54.303s-39.306-14.996-54.303 0l-228.849 228.844-228.847-228.844c-14.996-14.996-39.31-14.996-54.306 0s-14.996 39.306 0 54.303l228.847 228.849-228.847 228.847c-14.996 14.996-14.996 39.31 0 54.306z" />
<glyph unicode="&#xe90a;" glyph-name="danger" d="M928.427 272.856l-273.070 491.517c-36.69 66.134-87.465 102.4-143.36 102.4-55.892 0-106.665-36.266-143.358-102.4l-273.067-491.517c-34.56-62.72-38.4-122.88-10.666-170.24s82.346-73.39 154.026-73.39h546.136c71.68 0 126.29 26.030 154.025 73.39s23.895 107.945-10.665 170.24zM479.999 568.107c0 17.494 14.506 32 31.998 32 17.495 0 32-14.506 32-32v-213.331c0-17.495-14.505-32-32-32-17.492 0-31.998 14.505-31.998 32v213.331zM542.292 196.481c-2.135-1.705-4.265-3.415-6.4-5.12-2.56-1.705-5.12-2.985-7.68-3.84-2.56-1.28-5.12-2.135-8.105-2.56-2.56-0.425-5.55-0.855-8.11-0.855-2.558 0-5.545 0.43-8.532 0.855-2.56 0.425-5.12 1.28-7.68 2.56-2.56 0.855-5.12 2.135-7.68 3.84-2.134 1.705-4.266 3.415-6.4 5.12-7.68 8.105-12.374 19.2-12.374 30.295 0 11.090 4.694 22.185 12.374 30.29 2.134 1.71 4.266 3.415 6.4 5.12 2.56 1.71 5.12 2.99 7.68 3.84 2.56 1.28 5.12 2.135 7.68 2.56 5.546 1.28 11.522 1.28 16.642 0 2.985-0.425 5.545-1.28 8.105-2.56 2.56-0.85 5.12-2.13 7.68-3.84 2.135-1.705 4.265-3.41 6.4-5.12 7.68-8.105 12.375-19.2 12.375-30.29 0-11.095-4.695-22.19-12.375-30.295z" />
<glyph unicode="&#xe90b;" glyph-name="edit" d="M690.986 874.666h-357.547c-155.307 0-247.893-92.587-247.893-247.893v-357.12c0-155.733 92.587-248.32 247.893-248.32h357.12c155.307 0 247.893 92.587 247.893 247.893v357.547c0.427 155.307-92.16 247.893-247.467 247.893zM467.413 212.906c-12.373-12.373-35.84-24.32-52.907-26.88l-104.96-14.933c-3.84-0.427-7.68-0.853-11.52-0.853-17.493 0-33.707 5.973-45.227 17.493-14.080 14.080-20.053 34.56-16.64 57.173l14.933 104.96c2.56 17.493 14.080 40.533 26.88 52.907l190.293 190.293c3.413-8.96 6.827-17.92 11.52-28.16 4.267-8.96 8.96-18.347 14.080-26.88 4.267-7.253 8.96-14.080 12.8-19.2 4.693-7.253 10.24-14.080 13.653-17.92 2.133-2.987 3.84-5.12 4.693-5.973 10.667-12.8 23.040-24.747 33.707-33.707 2.987-2.987 4.693-4.693 5.547-5.12 6.4-5.12 12.8-10.24 18.347-14.080 6.827-5.12 13.653-9.813 20.907-13.653 8.533-5.12 17.92-9.813 27.307-14.507 9.813-4.267 18.773-8.107 27.733-11.093l-191.147-189.867zM741.333 486.826l-39.253-39.68c-2.56-2.56-5.973-3.84-9.387-3.84-1.28 0-2.987 0-3.84 0.427-86.613 24.747-155.733 93.867-180.48 180.48-1.28 4.693 0 9.813 3.413 12.8l39.68 39.68c64.853 64.853 126.72 63.573 190.293 0 32.427-32.427 48.213-63.573 48.213-96-0.427-30.72-16.213-61.44-48.64-93.867z" />
<glyph unicode="&#xe90c;" glyph-name="export" d="M653.833 584.386c2.272 26.412 25.53 45.979 51.936 43.705 83.968-7.231 152.762-33.339 198.918-90.219 45.075-55.555 61.286-131.767 61.286-222.561v-5.549c0-100.109-19.75-182.675-76.083-239.008s-138.899-76.083-239.008-76.083h-277.763c-100.107 0-182.674 19.75-239.007 76.083s-76.086 138.899-76.086 239.008v5.549c0 90.141 15.992 165.865 60.332 221.29 45.45 56.812 113.274 83.311 196.12 91.033 26.395 2.461 49.788-16.942 52.248-43.337s-16.942-49.788-43.338-52.248c-68.195-6.357-106.823-26.365-130.067-55.419-24.353-30.442-39.295-79.942-39.295-161.318v-5.549c0-90.611 18.435-141.594 47.967-171.123 29.533-29.536 80.513-47.968 171.126-47.968h277.763c90.611 0 141.594 18.432 171.123 47.968 29.536 29.53 47.968 80.512 47.968 171.123v5.549c0 82.003-15.149 131.656-39.834 162.073-23.603 29.093-62.97 49.064-132.602 55.061-26.413 2.275-45.984 25.529-43.706 51.941zM512.214 853.549c26.509 0 48-21.491 48-48v-485.547c0-26.509-21.491-48-48-48s-48 21.491-48 48v485.547c0 26.509 21.491 48 48 48zM478.269 887.271c18.745 18.745 49.137 18.745 67.882 0.001l142.933-142.933c18.746-18.746 18.746-49.137 0-67.882s-49.135-18.746-67.88-0.001l-108.994 108.993-108.993-108.993c-18.745-18.745-49.137-18.745-67.882 0s-18.745 49.137 0 67.882l142.934 142.933z" />
<glyph unicode="&#xe90d;" glyph-name="eye-slash" d="M907.353 568.434c-12.37 19.626-25.6 37.974-39.25 55.040-15.79 20.054-45.655 21.76-63.575 3.84l-128-128c9.385-28.16 11.095-60.589 2.56-94.294-14.935-60.16-63.575-108.8-123.735-123.735-33.705-8.53-66.131-6.825-94.291 2.56 0 0-61.013-61.010-104.96-104.96-21.333-21.33-14.506-58.88 14.080-69.97 45.654-17.495 93.014-26.455 141.651-26.455 75.95 0 149.76 22.185 217.175 63.575 68.695 42.665 130.56 105.385 180.48 185.17 40.535 64.43 38.4 172.803-2.135 237.229zM598.023 534.295l-172.375-172.375c-21.76 22.19-35.84 52.91-35.84 86.19 0 66.985 54.614 122.025 122.025 122.025 33.28 0 64-14.080 86.19-35.84zM778.493 714.773l-144.64-144.64c-31.15 31.574-74.24 50.346-122.028 50.346-95.574 0-172.374-77.226-172.374-172.375 0-47.785 19.2-90.88 50.346-122.025l-144.213-144.64h-0.427c-47.36 38.4-90.88 87.465-128 145.495-42.666 66.985-42.666 175.785 0 242.772 49.494 77.653 110.080 138.666 177.494 180.479 67.414 40.96 141.226 63.574 217.174 63.574 95.148 0 187.308-34.986 266.668-98.986zM633.863 448.105c0-66.985-54.615-122.025-122.025-122.025-2.562 0-4.695 0-7.255 0.855l128.425 128.425c0.855-2.56 0.855-4.694 0.855-7.255zM928.688 864.96c-12.8 12.8-33.705 12.8-46.505 0l-787.2-787.625c-12.8-12.8-12.8-33.71 0-46.51 6.4-5.97 14.506-9.385 23.040-9.385s16.64 3.415 23.040 9.815l787.625 787.625c13.23 12.8 13.23 33.28 0 46.080z" />
<glyph unicode="&#xe90e;" glyph-name="eye" d="M906.669 569.387c-98.56 154.88-242.775 244.053-394.668 244.053-75.947 0-149.76-22.186-217.174-63.574-67.414-41.813-128-102.826-177.494-180.479-42.666-66.987-42.666-175.787 0-242.772 98.56-155.31 242.774-244.055 394.667-244.055 75.948 0 149.758 22.185 217.173 63.575 67.415 41.81 128 102.825 177.495 180.48 42.665 66.56 42.665 175.785 0 242.772zM512.001 275.415c-95.574 0-172.374 77.225-172.374 172.37 0 95.149 76.8 172.375 172.374 172.375s172.373-77.226 172.373-172.375c0-95.145-76.8-172.37-172.373-172.37zM512.009 569.815c-66.986 0-121.6-54.614-121.6-122.025 0-66.99 54.614-121.6 121.6-121.6 66.985 0 122.025 54.61 122.025 121.6 0 66.985-55.040 122.025-122.025 122.025z" />
<glyph unicode="&#xe90f;" glyph-name="frame" d="M511.995 874.663c-111.787 0-202.667-90.88-202.667-202.666 0-109.654 85.76-198.4 197.547-202.24 3.413 0.426 6.828 0.426 9.388 0 0.85 0 1.28 0 2.13 0 0.43 0 0.43 0 0.855 0 109.225 3.84 194.985 92.586 195.415 202.24 0 111.786-90.88 202.666-202.668 202.666zM728.748 356.266c-119.040 79.36-313.174 79.36-433.066 0-54.187-36.265-84.054-85.33-84.054-137.81s29.866-101.12 83.626-136.96c59.734-40.11 138.24-60.16 216.747-60.16s157.011 20.050 216.746 60.16c53.76 36.265 83.625 84.905 83.625 137.81-0.425 52.48-29.865 101.12-83.625 136.96z" />
<glyph unicode="&#xe910;" glyph-name="ghost" d="M53.333 440.32c0 256.068 205.793 466.347 458.667 466.347s458.667-210.278 458.667-466.347v-336.64c0-30.046-8.721-64.742-39.266-78.861-31.27-14.451-62.72 2.735-84.083 23.006l-42.517 38.694c-3.541 3.255-10.325 3.255-13.867 0l-0.051-0.047-85.282-78.033c-0.013-0.013-0.026-0.026-0.038-0.034-28.019-25.715-72.384-25.715-100.403 0-0.013 0.009-0.026 0.021-0.038 0.034l-85.333 78.080c-3.541 3.255-10.325 3.255-13.867 0l-85.335-78.080c-0.009-0.009 0.009 0.004 0 0-28.019-25.724-72.418-25.749-100.44-0.034-0.012 0.009-0.024 0.021-0.036 0.034l-85.333 78.080c-3.544 3.255-10.327 3.255-13.871 0l-0.115-0.107-42.627-38.793c-0.013-0.009-0.026-0.021-0.039-0.034zM512 842.667c-216.46 0-394.667-180.547-394.667-402.347v-336.64c0-9.685 1.356-15.829 2.641-19.234 3.188 1.314 8.308 4.297 15.035 10.441l0.039 0.034 42.552 38.72c0.022 0.021 0.044 0.043 0.067 0.064 28.021 25.685 72.367 25.673 100.376-0.030 0.012-0.009 0.024-0.021 0.036-0.034l85.333-78.080c3.544-3.255 10.324-3.255 13.868 0l85.333 78.080c0.009 0.009-0.009-0.004 0 0 28.019 25.724 72.418 25.749 100.442 0.034 0.013-0.009 0.026-0.021 0.038-0.034l85.333-78.080c3.541-3.255 10.325-3.255 13.867 0l0.051 0.047 85.282 78.033c0.013 0.013 0.026 0.026 0.038 0.034 28.011 25.707 72.358 25.715 100.378 0.026 0.021-0.021 0.043-0.038 0.064-0.060l43.11-39.241c5.641-5.385 10.044-8.222 12.945-9.63 1.246 3.511 2.505 9.583 2.505 18.91v336.64c0 221.799-178.206 402.347-394.667 402.347zM902.665 81.621c0 0.004 0.013 0.021 0.043 0.060zM315.746 381.884c10.613 14.131 30.673 16.981 44.804 6.37 89.737-67.396 213.163-67.396 302.899 0 14.131 10.611 34.189 7.761 44.804-6.37 10.611-14.131 7.761-34.189-6.37-44.804-112.503-84.497-267.264-84.497-379.768 0-14.131 10.615-16.983 30.673-6.37 44.804zM394.667 576c0 64.801 52.531 117.333 117.333 117.333s117.333-52.532 117.333-117.333c0-64.802-52.531-117.333-117.333-117.333s-117.333 52.531-117.333 117.333zM512 629.333c-29.457 0-53.333-23.878-53.333-53.333 0-29.457 23.876-53.333 53.333-53.333s53.333 23.877 53.333 53.333c0 29.455-23.876 53.333-53.333 53.333z" />
<glyph unicode="&#xe911;" glyph-name="icon-arrow-down" d="M512.001 815.999c26.509 0 48-21.491 48-48v-524.115l174.061 174.056c18.746 18.745 49.133 18.745 67.878 0s18.746-49.137 0-67.882l-255.998-255.998c-18.745-18.746-49.137-18.746-67.882 0l-256 255.998c-18.745 18.745-18.745 49.137 0 67.882s49.137 18.745 67.882 0l174.059-174.056v524.115c0 26.509 21.491 48 48 48z" />
<glyph unicode="&#xe912;" glyph-name="icon-arrow-left" d="M481.941 737.94c18.745-18.745 18.745-49.137 0-67.882l-174.059-174.059h524.118c26.509 0 48-21.491 48-48s-21.491-48-48-48h-524.118l174.059-174.061c18.745-18.746 18.745-49.133 0-67.878s-49.137-18.746-67.882 0l-256 255.998c-18.745 18.745-18.745 49.137 0 67.882l256 256c18.745 18.745 49.137 18.745 67.882 0z" />
<glyph unicode="&#xe913;" glyph-name="icon-arrow-narrow-down" d="M512.001 803.2c26.509 0 48-21.49 48-48v-498.516l71.659 71.656c18.748 18.746 49.135 18.746 67.88 0 18.746-18.748 18.746-49.135 0-67.88l-153.598-153.6c-18.745-18.746-49.137-18.746-67.882 0l-153.6 153.6c-18.745 18.746-18.745 49.133 0 67.88s49.137 18.746 67.882 0l71.659-71.656v498.516c0 26.51 21.491 48 48 48z" />
<glyph unicode="&#xe914;" glyph-name="icon-arrow-narrow-left" d="M392.341 635.539c18.746-18.746 18.746-49.137 0-67.882l-71.659-71.659h498.518c26.509 0 48-21.491 48-48s-21.491-48-48-48h-498.516l71.657-71.656c18.745-18.742 18.746-49.135 0.001-67.881s-49.137-18.746-67.882 0l-153.6 153.595c-9.002 9.002-14.060 21.211-14.060 33.941s5.057 24.94 14.059 33.942l153.6 153.6c18.746 18.745 49.137 18.745 67.882 0z" />
<glyph unicode="&#xe915;" glyph-name="icon-arrow-narrow-right" d="M631.659 635.54c18.748 18.746 49.135 18.746 67.88 0l153.6-153.6c9.005-9.002 14.061-21.211 14.061-33.941s-5.056-24.94-14.061-33.941l-153.6-153.598c-18.746-18.746-49.133-18.746-67.88 0-18.745 18.746-18.745 49.133 0 67.88l71.656 71.659h-498.515c-26.509 0-48 21.491-48 48s21.491 48 48 48h498.515l-71.656 71.659c-18.745 18.746-18.745 49.137 0 67.882z" />
<glyph unicode="&#xe916;" glyph-name="icon-arrow-narrow-up" d="M512.001 803.2c12.73 0 24.94-5.057 33.941-14.059l153.598-153.6c18.746-18.745 18.746-49.137 0-67.882s-49.133-18.745-67.88 0l-71.659 71.659v-498.518c0-26.509-21.491-48-48-48s-48 21.491-48 48v498.518l-71.659-71.659c-18.745-18.745-49.137-18.745-67.882 0s-18.745 49.137 0 67.882l153.6 153.6c9.002 9.002 21.211 14.059 33.941 14.059z" />
<glyph unicode="&#xe917;" glyph-name="icon-arrow-right" d="M542.060 737.94c18.745 18.745 49.137 18.745 67.882 0l255.998-256c18.746-18.745 18.746-49.137 0-67.882l-255.998-255.998c-18.745-18.746-49.137-18.746-67.882 0s-18.745 49.133 0 67.878l174.056 174.061h-524.115c-26.509 0-48 21.491-48 48s21.491 48 48 48h524.115l-174.056 174.059c-18.745 18.745-18.745 49.137 0 67.882z" />
<glyph unicode="&#xe918;" glyph-name="icon-arrow-up" d="M478.060 801.941c18.745 18.745 49.137 18.745 67.882 0l255.998-256c18.746-18.745 18.746-49.137 0-67.882s-49.133-18.745-67.878 0l-174.061 174.059v-524.118c0-26.509-21.491-48-48-48s-48 21.491-48 48v524.118l-174.059-174.059c-18.745-18.745-49.137-18.745-67.882 0s-18.745 49.137 0 67.882l256 256z" />
<glyph unicode="&#xe919;" glyph-name="icon-arrows-diagonal" d="M115.199 806.4c0 21.208 17.192 38.4 38.4 38.4h256c21.208 0 38.4-17.192 38.4-38.4s-17.192-38.4-38.4-38.4h-163.294l190.447-190.447c14.996-14.996 14.996-39.31 0-54.306s-39.31-14.996-54.306 0l-190.447 190.447v-163.294c0-21.208-17.192-38.4-38.4-38.4s-38.4 17.192-38.4 38.4v256zM587.248 372.751c14.996 14.996 39.306 14.996 54.303 0l190.449-190.444v163.292c0 21.207 17.193 38.4 38.4 38.4s38.4-17.193 38.4-38.4v-256c0-21.207-17.193-38.4-38.4-38.4h-256c-21.207 0-38.4 17.193-38.4 38.4s17.193 38.4 38.4 38.4h163.292l-190.444 190.449c-14.996 14.996-14.996 39.306 0 54.303z" />
<glyph unicode="&#xe91a;" glyph-name="icon-arrows-horizontal-vertical" d="M484.848 782.353c14.996 14.996 39.308 14.996 54.304 0l87.772-87.772c14.996-14.996 14.996-39.309 0-54.306s-39.306-14.996-54.303 0l-22.221 22.219v-176.095h176.092l-22.216 22.219c-14.996 14.996-14.996 39.309 0 54.306s39.306 14.996 54.303 0l87.772-87.772c7.204-7.201 11.249-16.969 11.249-27.153s-4.045-19.953-11.249-27.151l-87.772-87.772c-14.996-14.996-39.306-14.996-54.303 0s-14.996 39.306 0 54.303l22.216 22.221h-176.092v-176.092l22.221 22.216c14.996 14.996 39.306 14.996 54.303 0s14.996-39.306 0-54.303l-87.772-87.772c-7.199-7.204-16.968-11.249-27.151-11.249s-19.952 4.045-27.153 11.249l-87.772 87.772c-14.996 14.996-14.996 39.306 0 54.303s39.31 14.996 54.306 0l22.219-22.216v176.092h-176.095l22.219-22.221c14.996-14.996 14.996-39.306 0-54.303s-39.31-14.996-54.306 0l-87.772 87.772c-14.996 14.996-14.996 39.308 0 54.304l87.772 87.772c14.996 14.996 39.31 14.996 54.306 0s14.996-39.31 0-54.306l-22.219-22.219h176.094v176.094l-22.219-22.219c-14.996-14.996-39.31-14.996-54.306 0s-14.996 39.31 0 54.306l87.772 87.772z" />
<glyph unicode="&#xe91b;" glyph-name="icon-arrows" d="M280.047 782.353c14.996 14.996 39.31 14.996 54.306 0l153.6-153.6c14.996-14.996 14.996-39.31 0-54.306s-39.31-14.996-54.306 0l-88.047 88.047v-521.694c0-21.207-17.192-38.4-38.4-38.4s-38.4 17.193-38.4 38.4v521.694l-88.047-88.047c-14.996-14.996-39.31-14.996-54.306 0s-14.996 39.31 0 54.306l153.6 153.6zM716.8 793.6c21.207 0 38.4-17.192 38.4-38.4v-521.692l88.049 88.044c14.996 14.996 39.306 14.996 54.303 0s14.996-39.306 0-54.303l-153.6-153.6c-14.996-14.996-39.306-14.996-54.303 0l-153.6 153.6c-14.996 14.996-14.996 39.306 0 54.303s39.306 14.996 54.303 0l88.049-88.044v521.692c0 21.208 17.193 38.4 38.4 38.4z" />
<glyph unicode="&#xe91c;" glyph-name="icon-at" d="M64 445.318c0 272.019 187.598 450.683 458.089 450.683 255.767 0 437.911-158.275 437.911-401.859 0-162.031-79.622-274.705-208.864-274.705-68.717 0-119.978 30.586-130.885 84.774h-7.089c-22.905-54.726-70.349-85.306-133.61-85.306-112.34 0-189.235 91.744-189.235 226.948 0 132.522 75.803 221.585 183.781 221.585 59.988 0 110.159-27.363 131.973-75.65h6.544v23.071c0 33.265 19.087 52.579 51.263 52.579 32.723 0 51.264-19.315 51.264-52.579v-253.777c0-37.021 20.173-58.484 57.261-58.484 57.261 0 95.981 75.117 95.981 182.959 0 211.928-151.61 330.5-346.84 330.5-219.773 0-365.926-151.837-365.926-373.423 0-228.024 155.968-362.155 389.375-362.155 49.081 0 83.437 6.438 127.064 16.096 8.723 1.606 15.814 2.144 22.362 2.144 25.082 0 38.72-12.877 38.72-33.261 0-19.853-11.456-34.342-42.541-45.069-37.626-12.346-94.343-20.39-162.511-20.39-271.036 0-464.088 167.936-464.088 445.317zM502.456 309.038c63.805 0 104.706 52.046 104.706 135.744 0 82.089-40.355 133.596-104.161 133.596s-100.888-49.897-100.888-134.132c0-84.235 37.084-135.208 100.343-135.208z" />
<glyph unicode="&#xe91d;" glyph-name="icon-bed" d="M955.733 482.817h-68.27c-9.436 0-17.065-7.324-17.065-16.384v-49.153h-477.866v49.153c0 9.060-7.646 16.384-17.067 16.384h-170.666c-9.421 0-17.066-7.324-17.066-16.384v-49.153h-34.134v245.761c0 9.044-7.646 16.384-17.066 16.384h-68.267c-9.421 0-17.066-7.34-17.066-16.384v-608.257c0-9.057 7.646-16.384 17.066-16.384h68.267c9.421 0 17.066 7.327 17.066 16.384v133.12h716.8v-133.12c0-9.057 7.629-16.384 17.065-16.384h68.27c9.436 0 17.065 7.327 17.065 16.384v411.649c0 9.060-7.629 16.384-17.065 16.384zM731.021 686.934h71.112v-71.111c0-7.851 6.354-14.222 14.218-14.222h56.893c7.864 0 14.218 6.371 14.218 14.222v71.111h71.112c7.864 0 14.223 6.371 14.223 14.222v56.889c0 7.85-6.359 14.222-14.223 14.222h-71.112v71.111c0 7.851-6.354 14.222-14.218 14.222h-56.893c-7.864 0-14.218-6.371-14.218-14.222v-71.111h-71.112c-7.864 0-14.223-6.371-14.223-14.222v-56.889c0-7.865 6.359-14.222 14.223-14.222z" />
<glyph unicode="&#xe91e;" glyph-name="icon-ccm-doc" d="M924.292 531.405h-140.18c-114.954 0-208.568 88.934-208.568 198.144v133.171c0 25.344-21.832 46.080-48.507 46.080h-205.663c-149.396 0-270.174-92.16-270.174-256.666v-408.269c0-164.506 120.778-256.666 270.174-256.666h381.254c149.396 0 270.172 92.16 270.172 256.666v241.459c0 25.344-21.827 46.080-48.507 46.080zM655.999 881.931c0 24.124 33.065 35.974 52.157 18.622 46.525-42.289 116.403-106.376 177.531-162.437l0.154-0.139c29.353-26.924 56.684-51.99 78.433-71.892 18.627-16.929 4.654-45.285-21.888-45.285-52.618 0-114.089 0-158.326 0.423-70.318 0-128.061 51.21-128.061 113.001v147.706zM166.399 275.2c0-71.962 41.512-115.2 109.847-115.2 43.587 0 77.915 18.995 92.284 49.879 2.395 5.407 3.672 10.348 3.672 15.596 0 12.355-8.941 20.695-22.512 20.695-10.218 0-16.285-4.173-21.235-14.674-10.378-22.39-28.579-33.044-52.848-33.044-36.881 0-60.033 29.343-60.033 76.902 0 46.945 23.47 76.442 59.873 76.442 22.991 0 41.831-11.428 52.369-34.13 5.269-10.808 12.134-15.442 22.991-15.442 12.773 0 21.235 7.875 21.235 20.076 0 5.56-1.596 11.581-4.79 17.449-15.806 32.123-49.176 50.652-92.284 50.652-66.259 0-108.57-43.392-108.57-115.2zM496.272 160c-68.335 0-109.847 43.238-109.847 115.2 0 71.808 42.31 115.2 108.57 115.2 43.111 0 76.478-18.529 92.283-50.652 3.195-5.868 4.792-11.889 4.792-17.449 0-12.201-8.463-20.076-21.238-20.076-10.854 0-17.72 4.634-22.989 15.442-10.537 22.702-29.379 34.13-52.37 34.13-36.403 0-59.873-29.496-59.873-76.442 0-47.56 23.151-76.902 60.033-76.902 24.271 0 42.472 10.655 52.846 33.044 4.951 10.501 11.018 14.674 21.238 14.674 13.573 0 22.513-8.34 22.513-20.695 0-5.248-1.28-10.189-3.671-15.596-14.372-30.884-48.696-49.879-92.286-49.879zM635.191 160.773c-13.573 0-21.555 8.028-21.555 21.77v176.973c0 18.836 11.494 30.111 31.135 30.111 16.763 0 26.025-6.794 33.050-24.090l57.16-136.975h1.275l57.001 136.975c7.025 17.142 16.445 24.090 33.367 24.090 19.482 0 30.976-11.116 30.976-30.111v-176.973c0-13.742-7.982-21.77-21.555-21.77-13.568 0-21.391 8.028-21.391 21.77v131.574h-1.28l-57.001-134.815c-4.147-9.882-10.537-14.208-20.593-14.208-10.22 0-16.927 4.48-20.915 14.054l-57.001 134.968h-1.275v-131.574c0-13.742-7.823-21.77-21.396-21.77z" />
<glyph unicode="&#xe91f;" glyph-name="icon-check" d="M833.94 673.94c18.746-18.745 18.746-49.137 0-67.882l-383.998-383.998c-18.745-18.746-49.137-18.746-67.882 0l-192 191.998c-18.745 18.745-18.745 49.137 0 67.882s49.137 18.745 67.882 0l158.059-158.059 350.061 350.059c18.746 18.745 49.133 18.745 67.878 0z" />
<glyph unicode="&#xe920;" glyph-name="icon-cqm-doc" d="M924.292 531.405h-140.18c-114.954 0-208.568 88.934-208.568 198.144v133.171c0 25.344-21.832 46.080-48.507 46.080h-205.663c-149.396 0-270.174-92.16-270.174-256.666v-408.269c0-164.506 120.778-256.666 270.174-256.666h381.254c149.396 0 270.172 92.16 270.172 256.666v241.459c0 25.344-21.827 46.080-48.507 46.080zM655.999 881.931c0 24.124 33.065 35.974 52.157 18.622 46.525-42.289 116.403-106.376 177.531-162.437l0.154-0.139c29.353-26.924 56.684-51.99 78.433-71.892 18.627-16.929 4.654-45.285-21.888-45.285-52.618 0-114.089 0-158.326 0.423-70.318 0-128.061 51.21-128.061 113.001v147.706zM166.399 285.85c0-65.306 40.74-104.545 107.805-104.545 42.778 0 76.467 17.234 90.569 45.266 2.351 4.905 3.604 9.39 3.604 14.152 0 11.213-8.775 18.78-22.094 18.78-10.028 0-15.983-3.784-20.84-13.312-10.185-20.321-28.048-29.993-51.866-29.993-36.196 0-58.916 26.629-58.916 69.796 0 42.604 23.034 69.371 58.76 69.371 22.564 0 41.054-10.373 51.396-30.971 5.171-9.81 11.909-14.019 22.564-14.019 12.535 0 20.84 7.148 20.84 18.222 0 5.043-1.567 10.511-4.701 15.836-15.513 29.148-48.262 45.967-90.569 45.967-65.028 0-106.551-39.383-106.551-104.55zM491.394 181.304c-67.064 0-109.059 39.521-109.059 104.407 0 64.328 41.994 104.689 109.059 104.689 66.911 0 108.9-40.361 108.9-104.689 0-35.599-12.692-64.189-36.040-81.423l12.692-16.538c3.133-4.347 4.388-7.567 4.388-11.914 0-9.252-7.992-15.836-19.272-15.836-7.68 0-12.692 2.524-17.393 8.97l-13.788 17.797c-12.068-3.645-25.229-5.463-39.488-5.463zM491.394 216.197c5.798 0 11.125 0.701 16.14 1.961l-10.812 14.019c-3.134 4.204-4.387 7.849-4.387 11.351 0 9.108 7.521 15.555 17.706 15.555 6.582 0 11.124-2.099 15.041-7.004l10.501-12.754c10.496 10.931 16.451 26.906 16.451 46.387 0 42.465-23.66 69.791-60.639 69.791-37.136 0-60.797-27.325-60.797-69.791 0-42.327 23.661-69.514 60.797-69.514zM639.323 182.001c-13.317 0-21.151 7.291-21.151 19.763v160.609c0 17.096 11.279 27.325 30.556 27.325 16.451 0 25.539-6.164 32.435-21.862l56.095-124.308h1.254l55.941 124.308c6.892 15.555 16.138 21.862 32.748 21.862 19.113 0 30.397-10.092 30.397-27.325v-160.609c0-12.472-7.834-19.763-21.156-19.763-13.317 0-20.997 7.291-20.997 19.763v119.404h-1.249l-55.941-122.348c-4.076-8.97-10.342-12.892-20.214-12.892-10.030 0-16.609 4.065-20.526 12.754l-55.941 122.486h-1.254v-119.404c0-12.472-7.675-19.763-20.997-19.763z" />
<glyph unicode="&#xe921;" glyph-name="icon-cross-round" d="M512 864c-229.75 0-416-186.25-416-416 0-229.754 186.25-416 416-416 229.754 0 416 186.246 416 416 0 229.75-186.246 416-416 416zM0 448c0 282.77 229.23 512 512 512s512-229.23 512-512c0-282.771-229.229-512-512-512s-512 229.229-512 512zM350.059 609.941c18.745 18.745 49.137 18.745 67.882 0l94.059-94.059 94.059 94.059c18.745 18.745 49.135 18.745 67.88 0s18.746-49.137 0-67.882l-94.057-94.059 94.057-94.059c18.746-18.745 18.746-49.135 0-67.88s-49.135-18.746-67.88 0l-94.059 94.057-94.059-94.057c-18.745-18.746-49.137-18.746-67.882 0s-18.745 49.135 0 67.88l94.059 94.059-94.059 94.059c-18.745 18.745-18.745 49.137 0 67.882z" />
<glyph unicode="&#xe922;" glyph-name="icon-cross-small" d="M60.118 899.882c37.49 37.49 98.275 37.49 135.764 0l316.118-316.118 316.118 316.118c37.49 37.49 98.275 37.49 135.764 0s37.49-98.275 0-135.764l-316.118-316.118 316.118-316.118c37.49-37.49 37.49-98.275 0-135.764s-98.275-37.49-135.764 0l-316.118 316.118-316.118-316.118c-37.49-37.49-98.274-37.49-135.764 0s-37.49 98.275 0 135.764l316.118 316.118-316.118 316.118c-37.49 37.49-37.49 98.274 0 135.764z" />
<glyph unicode="&#xe923;" glyph-name="icon-dots-horizontal" d="M281.6 448c0-42.414-34.384-76.8-76.8-76.8s-76.8 34.386-76.8 76.8c0 42.416 34.384 76.8 76.8 76.8s76.8-34.384 76.8-76.8zM588.8 448c0-42.414-34.386-76.8-76.8-76.8-42.416 0-76.8 34.386-76.8 76.8 0 42.416 34.384 76.8 76.8 76.8 42.414 0 76.8-34.384 76.8-76.8zM896 448c0-42.414-34.386-76.8-76.8-76.8s-76.8 34.386-76.8 76.8c0 42.416 34.386 76.8 76.8 76.8s76.8-34.384 76.8-76.8z" />
<glyph unicode="&#xe924;" glyph-name="calendar1" d="M322.049 740.352c-21.504 0-38.4 17.407-38.4 38.4v142.848c0 20.992 16.896 38.4 38.4 38.4s38.4-17.408 38.4-38.4v-142.336c0-21.504-16.896-38.911-38.4-38.911zM701.955 740.352c-21.504 0-38.4 17.407-38.4 38.4v142.848c0 21.504 17.406 38.4 38.4 38.4 21.504 0 38.4-17.408 38.4-38.4v-142.336c0-21.504-16.896-38.911-38.4-38.911zM899.582 831.999c-33.792 25.088-82.428 1.025-82.428-41.472v-5.119c0-59.904-43.008-115.2-102.912-121.344-69.12-7.169-127.488 47.105-127.488 114.688v53.247c0 28.16-23.040 51.2-51.204 51.2h-47.101c-28.159 0-51.199-23.040-51.199-51.2v-53.247c0-40.448-20.993-76.289-52.736-96.256-4.608-3.072-9.727-5.633-14.848-8.191-4.608-2.561-9.728-4.608-15.36-6.144-6.144-2.048-12.8-3.584-19.968-4.097-8.192-1.025-16.385-1.025-24.576 0-7.169 0.511-13.824 2.047-19.968 4.097-5.12 1.536-10.241 3.583-15.36 6.144s-10.241 5.119-14.849 8.191c-32.256 22.529-52.735 61.44-52.735 102.912v5.119c0 39.425-41.984 62.976-75.264 46.080-0.512-0.511-1.025-0.511-1.536-1.024-2.048-1.025-3.584-2.048-5.633-3.584-1.536-1.536-3.583-2.56-5.119-4.096-14.336-11.264-27.137-24.065-37.889-37.889-5.633-6.144-10.241-12.799-14.335-19.457-0.512-0.511-1.025-1.024-1.536-2.047-4.608-6.655-8.705-14.335-12.288-21.504-1.025-1.025-1.536-1.536-1.536-2.561-3.072-6.144-6.144-12.288-8.192-18.943-1.536-2.561-2.047-4.608-3.072-7.169-3.072-7.68-5.119-15.36-7.168-23.040-2.048-7.168-3.584-14.848-4.608-22.528-1.025-5.633-1.536-11.264-2.048-17.408-0.511-7.168-1.024-14.335-1.024-21.504v-448.507c0-137.73 111.615-249.346 249.342-249.346h474.107c137.73 0 249.346 111.618 249.346 249.346v448.507c0 81.408-38.916 152.576-98.82 198.143zM512.002 170.498h-237.567c-20.993 0-38.4 17.406-38.4 38.4 0 21.504 17.407 38.91 38.4 38.91h237.567c21.504 0 38.4-17.406 38.4-38.91 0-20.994-16.896-38.4-38.4-38.4zM654.339 360.452h-379.903c-20.993 0-38.4 17.406-38.4 38.4 0 21.504 17.407 38.91 38.4 38.91h379.903c21.504 0 38.91-17.406 38.91-38.91 0-20.994-17.406-38.4-38.91-38.4z" />
<glyph unicode="&#xe925;" glyph-name="arrow-down" d="M50.050 706.020c29.868 29.868 78.29 29.868 108.155 0l353.804-353.804 353.804 353.804c29.868 29.868 78.29 29.868 108.155 0s29.868-78.29 0-108.155l-407.887-407.887c-29.868-29.868-78.29-29.868-108.155 0l-407.887 407.887c-29.868 29.868-29.868 78.29 0 108.155z" />
<glyph unicode="&#xe926;" glyph-name="icon-dropdown-left" d="M641.553 679.953c14.996-14.996 14.996-39.31 0-54.306l-177.646-177.647 177.646-177.649c14.996-14.996 14.996-39.306 0-54.303s-39.306-14.996-54.303 0l-204.802 204.8c-14.996 14.994-14.996 39.308 0 54.304l204.802 204.8c14.996 14.996 39.306 14.996 54.303 0z" />
<glyph unicode="&#xe927;" glyph-name="icon-dropdown-right" d="M382.448 216.047c-14.996 14.996-14.996 39.306 0 54.303l177.645 177.649-177.645 177.647c-14.996 14.996-14.996 39.31 0 54.306s39.31 14.996 54.306 0l204.798-204.8c14.996-14.996 14.996-39.31 0-54.304l-204.798-204.8c-14.996-14.996-39.31-14.996-54.306 0z" />
<glyph unicode="&#xe928;" glyph-name="icon-dropdown-up" d="M743.953 318.447c-14.996-14.996-39.306-14.996-54.303 0l-177.649 177.646-177.647-177.646c-14.996-14.996-39.31-14.996-54.306 0s-14.996 39.306 0 54.303l204.8 204.802c14.996 14.996 39.31 14.996 54.304 0l204.8-204.802c14.996-14.996 14.996-39.306 0-54.303z" />
<glyph unicode="&#xe929;" glyph-name="icon-dx-doc" d="M784.113 531.404h140.18c26.68 0 48.507-20.736 48.507-46.080v-241.459c0-164.506-120.776-256.666-270.172-256.666h-381.254c-149.396 0-270.174 92.16-270.174 256.666v408.269c0 164.506 120.778 256.666 270.174 256.666h205.663c26.675 0 48.507-20.736 48.507-46.080v-133.171c0-109.21 93.614-198.144 208.568-198.144zM525.21 181.836c0-12.283 11.325-21.837 25.795-21.837 10.066 0 15.729 3.118 22.861 12.672l71.511 93.988h1.674l71.931-94.182c6.922-8.965 13.425-12.477 23.491-12.477 14.889 0 26.419 9.748 26.419 22.815 0 6.241-2.094 11.894-6.917 17.546l-80.527 102.764v1.362l83.041 104.709c4.823 6.047 6.712 11.31 6.712 17.357 0 12.088-11.955 21.448-26.214 21.448-10.276 0-15.519-3.512-22.226-12.477l-71.931-96.522h-1.679l-70.042 94.961c-7.342 10.138-14.049 14.039-24.325 14.039-15.729 0-27.474-9.943-27.474-23.398 0-6.241 1.679-11.699 7.342-18.524l78.218-100.419v-1.367l-80.737-104.904c-4.823-6.436-6.922-11.699-6.922-17.551zM252.8 189.444c0-16.379 10.276-26.132 27.053-26.132h83.464c90.594 0 143.86 52.26 143.86 141.368 0 89.114-53.476 140.006-143.86 140.006h-83.464c-16.777 0-27.053-9.754-27.053-26.132v-229.11zM357.655 205.823h-50.749v196.352h50.749c60.396 0 94.369-34.708 94.369-97.69 0-64.148-33.553-98.662-94.369-98.662zM708.157 900.552c-19.092 17.352-52.157 5.502-52.157-18.622v-147.706c0-61.791 57.743-113.001 128.061-113.001 44.237-0.423 105.708-0.423 158.326-0.423 26.542 0 40.515 28.356 21.888 45.285-67.057 61.368-187.203 171.83-256.118 234.468z" />
<glyph unicode="&#xe92a;" glyph-name="icon-filter" d="M315.199 716.858c-9.001 0-21.010-8.225-20.797-26.032l0.005-0.46-0.003-71.334c0-2.407 1.059-8.656 4.677-17.010 3.498-8.075 7.934-14.738 11.572-18.528l0.697-0.745 113.090-124.26c0.75-0.824 1.464-1.681 2.14-2.567 8.569-11.242 16.187-25.527 21.72-39.975 5.459-14.254 9.994-31.534 9.994-48.655v-164.301c0-19.866 20.159-28.595 32.943-20.762l41.59 28.109c0 0.005 0.614 0.481 1.664 1.772 1.265 1.556 2.688 3.727 4.014 6.38 2.918 5.842 3.789 10.762 3.789 12.575v133.468c0 18.099 4.234 36.931 10.998 53.576 6.641 16.338 16.886 33.41 31.237 46.234l126.582 116.414c3.651 4.196 8.433 11.497 12.365 20.51 4.28 9.8 6.124 18.336 6.124 23.752v68.112c0 14.347-11.223 23.731-21.238 23.731h-393.163zM217.605 690.161c-0.539 55.72 41.302 103.497 97.594 103.497h393.163c55.368 0 98.038-46.764 98.038-100.531v-68.112c0-19.436-5.668-38.743-12.539-54.487-6.922-15.852-16.512-31.382-27.366-43.028-0.671-0.722-1.372-1.417-2.099-2.085l-128.64-118.307c-3.154-2.79-7.619-8.832-11.315-17.92-3.615-8.893-5.345-17.905-5.345-24.658v-133.468c0-16.594-5.094-33.306-11.889-46.904-6.615-13.23-17.172-28.18-32.246-38.031l-42.051-28.416c-64.989-41.544-151.415 5.893-151.415 85.279v164.301c0 4.511-1.428 12.083-4.914 21.187-3.135 8.187-7.027 15.242-10.244 19.753l-111.48 122.491c-11.197 11.791-20.098 26.579-26.248 40.775-6.099 14.082-11.004 31.074-11.004 47.536v71.129z" />
<glyph unicode="&#xe92b;" glyph-name="icon-last-page" d="M228.848 216.047c-14.996 14.996-14.996 39.306 0 54.303l177.647 177.649-177.647 177.647c-14.996 14.996-14.996 39.31 0 54.306s39.31 14.996 54.306 0l204.798-204.8c14.996-14.996 14.996-39.31 0-54.304l-204.798-204.8c-14.996-14.996-39.31-14.996-54.306 0zM536.050 216.047c-14.996 14.996-14.996 39.306 0 54.303l177.644 177.649-177.644 177.647c-14.996 14.996-14.996 39.31 0 54.306s39.306 14.996 54.303 0l204.8-204.8c14.996-14.996 14.996-39.31 0-54.304l-204.8-204.8c-14.996-14.996-39.306-14.996-54.303 0z" />
<glyph unicode="&#xe92c;" glyph-name="icon-page-one" d="M487.954 679.953c14.996-14.996 14.996-39.31 0-54.306l-177.647-177.647 177.647-177.649c14.996-14.996 14.996-39.306 0-54.303s-39.31-14.996-54.306 0l-204.8 204.8c-14.996 14.994-14.996 39.308 0 54.304l204.8 204.8c14.996 14.996 39.31 14.996 54.306 0zM795.152 679.953c14.996-14.996 14.996-39.31 0-54.306l-177.644-177.647 177.644-177.649c14.996-14.996 14.996-39.306 0-54.303s-39.306-14.996-54.303 0l-204.8 204.8c-14.998 14.994-14.998 39.308 0 54.304l204.8 204.8c14.996 14.996 39.306 14.996 54.303 0z" />
<glyph unicode="&#xe92d;" glyph-name="icon-person" d="M921.384 568.552c-2.14-53.757-21.038-108.859-54.559-159.354-39.757-60.283-61.686-106.552-68.28-143.99-29.957 16.891-51.348 47.227-64.901 72.571-12.477 23.424-12.477 52.413 0.538 75.453l18.719 33.213c14.444 25.534 9.984 58.365-10.342 78.524-16.579 16.511-40.468 21.119-61.507 11.903l-19.789-8.831c-29.24-12.863-62.761-2.688-81.3 24.958l-101.448 150.329c-16.937 25.151-45.999 36.286-74.525 30.718-37.619-7.295-83.618-0.768-113.748 5.568 36.371 81.212 109.469 141.689 199.684 159.544 168.127 33.023 303.802-19.391 382.251-147.833 35.123-58.749 51.528-120.379 49.208-182.776zM212.864 392.881c-9.984 3.84-17.651 12.861-20.325 23.997-2.674 11.331 0 23.040 6.953 31.871l69.176 86.012c2.853 3.456 4.279 8.063 3.922 12.671l-6.24 103.291c0 2.303 0.357 4.415 0.535 5.951 1.961 16.127 5.17 31.678 9.806 46.654l6.597-1.344c30.309-6.335 58.479-9.407 83.439-9.407 15.868 0 30.309 1.344 43.324 3.839 2.674 0.384 5.527 0.768 8.201 0.768 12.837 0 24.247-5.951 31.201-16.319l101.627-150.329c19.43-28.99 50.99-46.27 84.152-46.27 13.548 0 26.921 2.88 39.578 8.448l19.789 8.831c2.678 1.152 5.53 1.728 8.561 1.728 5.524 0 11.054-2.304 15.155-6.336 7.844-7.871 9.626-20.543 4.101-30.526l-18.724-33.212c-19.789-34.944-20.147-78.909-1.070-114.427 14.976-28.032 40.832-65.853 79.34-87.552l11.592-6.528c-3.927-42.813 5.704-89.083 29.594-140.728 2.319-5.181 2.319-11.52 0-16.701-2.319-5.376-6.774-9.216-12.124-10.563l-287.58-69.115c-1.249-0.195-2.673-0.384-3.922-0.384-4.101 0-8.023 1.536-11.232 4.224-4.279 3.84-6.597 9.405-6.597 15.36 0.535 31.872-4.457 61.629-14.62 88.125-11.41 29.373-39.223 48.957-69.889 47.805-5.883-0.195-11.945-0.384-18.186-0.579-20.147-0.957-41.185-1.725-62.579 0.579-36.727 4.029-64.362 37.243-64.362 77.179v36.096c0 10.557 8.023 19.195 17.829 19.195h40.293c-7.488 22.083-27.1 38.016-50.099 38.016h-18.898c-3.209 0-6.597 0.963-9.449 2.883-7.132 4.797-10.162 14.203-7.31 22.651l8.379 26.307-2.674 13.056-37.262 14.781zM198.422 183.801l-71.315-32.061c-2.318-0.957-4.636-1.536-6.775-1.536-6.953 0-13.55 4.419-16.403 11.904-3.744 9.789 0.535 21.12 9.628 25.149l71.316 32.061c9.093 4.035 19.433-0.573 23.355-10.363 3.566-9.795-0.713-21.12-9.806-25.155zM103.751 368.884c3.744 9.789 14.263 14.397 23.356 10.363l71.315-32.061c9.093-4.029 13.372-15.36 9.628-25.149-2.852-7.296-9.449-11.904-16.402-11.904-2.318 0-4.636 0.384-6.775 1.536l-71.316 32.061c-9.271 4.224-13.55 15.36-9.806 25.155zM191.647 246.393h-71.315c-9.806 0-17.829 8.637-17.829 19.2 0 10.557 8.023 19.195 17.829 19.195h71.315c9.806 0 17.829-8.637 17.829-19.195 0-10.563-8.023-19.2-17.829-19.2z" />
<glyph unicode="&#xe92e;" glyph-name="pin" d="M512 855.865c-95.855 0-173.559-77.705-173.559-173.559 0-47.963 19.318-91.209 50.834-122.725 0 0 0 0 0 0zM389.275 559.58c31.517-31.516 74.762-50.834 122.725-50.834 95.855 0 173.559 77.705 173.559 173.559s-77.705 173.559-173.559 173.559zM234.305 682.305c0 153.367 124.328 277.695 277.695 277.695 153.364 0 277.695-124.328 277.695-277.695s-124.331-277.695-277.695-277.695c-76.675 0-146.101 31.077-196.361 81.334v0c-50.258 50.258-81.334 119.684-81.334 196.361zM512 456.678c28.756 0 52.068-23.312 52.068-52.068v-416.542c0-28.756-23.312-52.068-52.068-52.068s-52.068 23.312-52.068 52.068v416.542c0 28.756 23.312 52.068 52.068 52.068z" />
<glyph unicode="&#xe92f;" glyph-name="icon-plaster" d="M498.841 154.497l307.34 307.020-280.172 279.882-307.34-307.022 280.172-279.88zM534.498 286.803c-11.884-11.873-32.262-11.873-44.148 0s-11.886 32.23 0 44.104c11.886 11.873 32.264 11.873 44.148 0 11.889-11.873 11.889-32.23 0-44.104zM490.351 609.091c11.886 11.874 32.264 11.874 44.148 0 11.889-11.874 11.889-32.228 0-44.102-11.884-11.874-32.262-11.874-44.148 0s-11.886 32.228 0 44.102zM559.97 539.545c11.884 11.874 32.261 11.874 44.15 0 11.884-11.874 11.884-32.229 0-44.103-11.889-11.874-32.266-11.874-44.15 0-11.889 11.874-11.889 32.229 0 44.103zM629.587 469.999c11.889 11.874 32.261 11.874 44.15 0 11.884-11.874 11.884-32.227 0-44.101-11.889-11.873-32.261-11.878-44.15 0-11.884 11.873-11.884 32.227 0 44.101zM420.732 539.545c11.886 11.874 32.262 11.874 44.148 0s11.886-32.229 0-44.103c-11.886-11.874-32.262-11.874-44.148 0s-11.886 32.229 0 44.103zM490.351 469.999c11.886 11.874 32.264 11.874 44.148 0 11.889-11.874 11.889-32.227 0-44.101-11.884-11.873-32.262-11.873-44.148 0s-11.886 32.227 0 44.101zM559.97 400.452c11.884 11.873 32.261 11.873 44.15 0 11.884-11.873 11.884-32.23 0-44.104-11.889-11.873-32.266-11.873-44.15 0-11.889 11.873-11.889 32.23 0 44.104zM351.114 469.999c11.886 11.874 32.262 11.874 44.148 0s11.886-32.227 0-44.101c-11.886-11.878-32.262-11.873-44.148 0s-11.886 32.227 0 44.101zM420.732 400.452c11.886 11.873 32.262 11.873 44.148 0s11.886-32.23 0-44.104c-11.886-11.873-32.262-11.873-44.148 0s-11.886 32.23 0 44.104zM179.613 395.362l-70.468-70.395c-77.259-77.179-77.259-202.701 0-279.88 77.26-77.184 202.913-77.184 280.172 0l70.468 70.395-280.172 279.88zM635.531 850.81l-70.467-70.394 279.322-279.034 70.472 70.394c77.256 77.18 77.256 202.702 0 279.882-76.411 76.331-202.066 76.331-279.327-0.848z" />
<glyph unicode="&#xe930;" glyph-name="icon-plus" d="M512 793.6c21.207 0 38.4-17.192 38.4-38.4v-268.8h268.8c21.207 0 38.4-17.192 38.4-38.4s-17.193-38.4-38.4-38.4h-268.8v-268.8c0-21.207-17.193-38.4-38.4-38.4s-38.4 17.193-38.4 38.4v268.8h-268.8c-21.208 0-38.4 17.193-38.4 38.4s17.192 38.4 38.4 38.4h268.8v268.8c0 21.208 17.192 38.4 38.4 38.4z" />
<glyph unicode="&#xe931;" glyph-name="icon-rotate" d="M512.001 713.381c-39.983 0-76.301-6.396-109.562-16.337-25.4-7.59-52.143 6.847-59.734 32.246s6.847 52.144 32.246 59.734c40.979 12.246 86.581 20.356 137.050 20.356 230.879 0 417.919-187.036 417.919-417.92 0-230.88-187.040-417.92-417.919-417.92-230.883 0-417.92 187.040-417.92 417.92 0 85.779 26.046 165.816 70.356 232.28 14.705 22.058 44.506 28.017 66.564 13.313s28.017-44.507 13.313-66.564c-34.198-51.296-54.232-112.913-54.232-179.028 0-177.862 144.057-321.92 321.92-321.92 177.862 0 321.919 144.058 321.919 321.92 0 177.864-144.058 321.92-321.919 321.92zM490.592 910.663c19.996-17.406 22.095-47.725 4.689-67.72l-123.307-141.654c-17.405-19.996-47.725-22.095-67.72-4.689s-22.095 47.725-4.689 67.72l123.307 141.654c17.406 19.995 47.725 22.095 67.72 4.689zM297 761.103c15.629 21.412 45.658 26.099 67.070 10.469l143.787-104.96c21.412-15.63 26.099-45.658 10.468-67.070s-45.658-26.099-67.070-10.469l-143.787 104.96c-21.412 15.63-26.099 45.659-10.468 67.070z" />
<glyph unicode="&#xe932;" glyph-name="id-card" d="M768 832h-512c-94.293 0-170.667-75.947-170.667-169.387v-429.227c0-93.44 76.373-169.387 170.667-169.387h512c94.293 0 170.667 75.947 170.667 169.387v429.227c0 93.44-76.373 169.387-170.667 169.387zM362.667 654.080c54.187 0 98.56-44.373 98.56-98.56s-44.373-98.56-98.56-98.56c-54.187 0-98.56 44.373-98.56 98.56s44.373 98.56 98.56 98.56zM527.787 249.173c-3.84-4.267-9.813-6.827-15.787-6.827h-298.667c-5.973 0-11.947 2.56-15.787 6.827s-5.973 10.24-5.547 16.213c7.253 71.68 64.427 128.427 136.107 135.253 22.613 2.133 46.080 2.133 68.693 0 71.68-6.827 129.28-63.573 136.107-135.253 0.853-5.973-1.28-11.947-5.12-16.213zM810.667 245.333h-85.333c-17.493 0-32 14.507-32 32s14.507 32 32 32h85.333c17.493 0 32-14.507 32-32s-14.507-32-32-32zM810.667 416h-170.667c-17.493 0-32 14.507-32 32s14.507 32 32 32h170.667c17.493 0 32-14.507 32-32s-14.507-32-32-32zM810.667 586.667h-213.333c-17.493 0-32 14.507-32 32s14.507 32 32 32h213.333c17.493 0 32-14.507 32-32s-14.507-32-32-32z" />
<glyph unicode="&#xe933;" glyph-name="icon-rpm-doc" d="M924.292 531.405h-140.18c-114.954 0-208.568 88.934-208.568 198.144v133.171c0 25.344-21.832 46.080-48.507 46.080h-205.663c-149.396 0-270.174-92.16-270.174-256.666v-408.269c0-164.506 120.778-256.666 270.174-256.666h381.254c149.396 0 270.172 92.16 270.172 256.666v241.459c0 25.344-21.827 46.080-48.507 46.080zM655.999 881.931c0 24.124 33.065 35.974 52.157 18.622 46.525-42.289 116.403-106.376 177.531-162.437l0.154-0.139c29.353-26.924 56.684-51.99 78.433-71.892 18.627-16.929 4.654-45.285-21.888-45.285-52.618 0-114.089 0-158.326 0.423-70.318 0-128.061 51.21-128.061 113.001v147.706zM613.36 160.312c-14.904 0-23.675 8.069-23.675 21.888v177.925c0 18.939 12.626 30.275 34.191 30.275 18.412 0 28.58-6.83 36.296-24.218l62.771-137.713h1.403l62.592 137.713c7.716 17.229 18.058 24.218 36.644 24.218 21.391 0 34.017-11.177 34.017-30.275v-177.925c0-13.819-8.765-21.888-23.67-21.888s-23.496 8.069-23.496 21.888v132.28h-1.403l-62.592-135.542c-4.562-9.933-11.576-14.28-22.62-14.28-11.223 0-18.586 4.5-22.968 14.126l-62.597 135.695h-1.403v-132.28c0-13.819-8.591-21.888-23.491-21.888zM408.551 160.312c-16.657 0-26.476 9.001-26.476 24.371v178.237c0 15.37 9.819 24.376 26.476 24.376h76.446c51.9 0 87.669-30.587 87.669-76.698 0-45.957-36.997-76.698-90.298-76.698h-47.341v-49.219c0-15.37-9.819-24.371-26.476-24.371zM435.027 270.541h35.768c30.333 0 48.044 14.285 48.044 39.9 0 25.462-17.536 39.747-47.869 39.747h-35.943v-79.647zM166.399 184.376c0-15.37 9.994-24.376 26.476-24.376 16.657 0 26.476 9.006 26.476 24.376v60.861h45.061l42.080-67.538c8.591-13.665 14.377-17.7 27.002-17.7 15.43 0 26.651 9.006 26.651 21.427 0 5.432-1.227 9.467-5.61 16.143l-36.47 55.895c27.878 10.557 43.483 34.468 43.483 62.413 0 44.247-33.314 71.419-91.525 71.419h-77.147c-16.657 0-26.476-9.006-26.476-24.376v-178.545zM264.937 279.235h-45.587v71.419h45.061c26.3 0 42.782-13.972 42.782-35.707 0-22.2-15.605-35.712-42.256-35.712z" />
<glyph unicode="&#xe934;" glyph-name="icon-search" d="M792.049 113.648c14.996-14.996 39.306-14.996 54.303 0s14.996 39.306 0 54.303l-54.303-54.303zM678.4 499.199c0-120.177-97.423-217.6-217.6-217.6v-76.8c162.591 0 294.4 131.809 294.4 294.4h-76.8zM460.8 281.599c-120.177 0-217.6 97.423-217.6 217.6h-76.8c0-162.591 131.807-294.4 294.4-294.4v76.8zM243.2 499.199c0 120.177 97.423 217.6 217.6 217.6v76.8c-162.593 0-294.4-131.807-294.4-294.4h76.8zM460.8 716.799c120.177 0 217.6-97.423 217.6-217.6h76.8c0 162.593-131.809 294.4-294.4 294.4v-76.8zM846.351 167.95l-179.2 179.2-54.303-54.303 179.2-179.2 54.303 54.303z" />
<glyph unicode="&#xe935;" glyph-name="id-card1" d="M768 832h-512c-94.293 0-170.667-75.947-170.667-169.387v-429.227c0-93.44 76.373-169.387 170.667-169.387h512c94.293 0 170.667 75.947 170.667 169.387v429.227c0 93.44-76.373 169.387-170.667 169.387zM362.667 654.080c54.187 0 98.56-44.373 98.56-98.56s-44.373-98.56-98.56-98.56c-54.187 0-98.56 44.373-98.56 98.56s44.373 98.56 98.56 98.56zM527.787 249.173c-3.84-4.267-9.813-6.827-15.787-6.827h-298.667c-5.973 0-11.947 2.56-15.787 6.827s-5.973 10.24-5.547 16.213c7.253 71.68 64.427 128.427 136.107 135.253 22.613 2.133 46.080 2.133 68.693 0 71.68-6.827 129.28-63.573 136.107-135.253 0.853-5.973-1.28-11.947-5.12-16.213zM810.667 245.333h-85.333c-17.493 0-32 14.507-32 32s14.507 32 32 32h85.333c17.493 0 32-14.507 32-32s-14.507-32-32-32zM810.667 416h-170.667c-17.493 0-32 14.507-32 32s14.507 32 32 32h170.667c17.493 0 32-14.507 32-32s-14.507-32-32-32zM810.667 586.667h-213.333c-17.493 0-32 14.507-32 32s14.507 32 32 32h213.333c17.493 0 32-14.507 32-32s-14.507-32-32-32z" />
<glyph unicode="&#xe936;" glyph-name="keyboard" d="M779.52 817.067c-20.053 2.987-43.093 4.267-75.52 4.267h-384c-32 0-55.467-1.28-74.24-3.84-142.933-15.787-171.093-100.693-171.093-241.493v-256c0-140.8 28.16-225.707 169.813-241.067 20.053-2.987 43.093-4.267 75.52-4.267h384c32 0 55.467 1.28 74.24 3.84 142.933 15.787 171.093 100.267 171.093 241.493v256c0 140.8-28.16 225.707-169.813 241.067zM430.507 576c23.893 0 43.093-19.2 43.093-42.667s-19.2-42.667-42.667-42.667c-23.467 0-42.667 19.2-42.667 42.667s18.773 42.667 42.24 42.667zM302.507 576c24.32 0 43.093-19.2 43.093-42.667s-19.2-42.667-42.667-42.667c-23.467 0-42.667 19.2-42.667 42.667s18.773 42.667 42.24 42.667zM725.333 266.667h-425.813c-17.493 0-32.427 14.507-32.427 32s14.080 32 31.573 32h426.667c17.493 0 32-14.507 32-32s-14.507-32-32-32zM725.333 501.333h-149.333c-17.493 0-32 14.507-32 32s14.507 32 32 32h149.333c17.493 0 32-14.507 32-32s-14.507-32-32-32z" />
<glyph unicode="&#xe937;" glyph-name="layout" d="M938.667 596.48v193.707c0 60.16-27.307 84.48-95.147 84.48h-172.373c-67.84 0-95.147-24.32-95.147-84.48v-193.28c0-60.587 27.307-84.48 95.147-84.48h172.373c67.84-0.427 95.147 23.893 95.147 84.053zM938.667 116.48v172.373c0 67.84-27.307 95.147-95.147 95.147h-172.373c-67.84 0-95.147-27.307-95.147-95.147v-172.373c0-67.84 27.307-95.147 95.147-95.147h172.373c67.84 0 95.147 27.307 95.147 95.147zM448 596.48v193.707c0 60.16-27.307 84.48-95.147 84.48h-172.373c-67.84 0-95.147-24.32-95.147-84.48v-193.28c0-60.587 27.307-84.48 95.147-84.48h172.373c67.84-0.427 95.147 23.893 95.147 84.053zM448 116.48v172.373c0 67.84-27.307 95.147-95.147 95.147h-172.373c-67.84 0-95.147-27.307-95.147-95.147v-172.373c0-67.84 27.307-95.147 95.147-95.147h172.373c67.84 0 95.147 27.307 95.147 95.147z" />
<glyph unicode="&#xe938;" glyph-name="letter" d="M725.332 810.666h-426.666c-128 0-213.334-64-213.334-213.334v-298.664c0-149.335 85.334-213.335 213.334-213.335h426.666c128 0 213.335 64 213.335 213.335v298.664c0 149.334-85.335 213.334-213.335 213.334zM745.387 550.826l-133.55-106.668c-28.16-22.61-64-33.705-99.838-33.705-35.84 0-72.107 11.095-99.84 33.705l-133.547 106.668c-13.653 11.094-15.786 31.574-5.12 45.227 11.094 13.653 31.147 16.213 44.8 5.12l133.547-106.667c32.426-26.026 87.468-26.026 119.893 0l133.545 106.667c13.655 11.093 34.135 8.96 44.8-5.12 11.095-13.654 8.96-34.134-4.69-45.227z" />
<glyph unicode="&#xe939;" glyph-name="link" d="M591.562 682.668c0 26.509 21.491 48 48 48h64.425c155.846 0 282.669-127.361 282.669-282.667 0-155.845-127.36-282.668-282.669-282.668h-64.425c-26.509 0-48 21.491-48 48s21.491 48 48 48h64.425c102.406 0 186.669 83.955 186.669 186.668 0 102.399-83.955 186.667-186.669 186.667h-64.425c-26.509 0-48 21.49-48 48zM37.344 448.001c0 155.789 126.877 282.667 282.666 282.667h64c26.51 0 48-21.491 48-48s-21.49-48-48-48h-64c-102.77 0-186.666-83.896-186.666-186.667 0-102.403 83.953-186.668 186.666-186.668h64c26.51 0 48-21.491 48-48s-21.49-48-48-48h-64c-155.846 0-282.666 127.36-282.666 282.668zM293.344 447.996c0 26.509 21.491 48 48 48h341.331c26.509 0 48-21.491 48-48s-21.491-48-48-48h-341.331c-26.509 0-48 21.491-48 48z" />
<glyph unicode="&#xe93a;" glyph-name="message-popup-minus" d="M725.332 856.084h-426.666c-128 0-213.334-85.334-213.334-213.334v-256.002c0-128 85.334-213.33 213.334-213.33h170.666l189.865-126.295c28.16-18.775 66.135 1.28 66.135 35.415v90.88c128 0 213.335 85.33 213.335 213.33v256.002c0 128-85.335 213.334-213.335 213.334zM661.332 479.764h-298.666c-17.494 0-32 14.506-32 32s14.506 32 32 32h298.666c17.495 0 32-14.507 32-32s-14.505-32-32-32z" />
<glyph unicode="&#xe93b;" glyph-name="message-text" d="M183.275 778.006c-30.49-30.49-49.941-80.125-49.941-158.059v-213.334c0-102.529 20.927-148.532 47.608-171.879 28.266-24.73 75.907-36.122 160.392-36.122h21.333c15.22 0 29.417-4.691 40.147-10.010 10.557-5.235 23.188-13.773 32.541-26.464l63.844-85.126c6.347-8.461 11.439-8.96 12.801-8.96s6.452 0.493 12.799 8.96l64.182 85.574c17.044 22.432 43.894 36.026 72.353 36.026h21.331c77.933 0 127.571 19.45 158.061 49.939s49.939 80.125 49.939 158.061v213.334c0 77.934-19.45 127.569-49.939 158.059s-80.128 49.941-158.061 49.941h-341.331c-77.935 0-127.569-19.452-158.059-49.941zM115.392 845.888c54.844 54.843 133.209 78.059 225.942 78.059h341.331c92.736 0 171.098-23.216 225.939-78.059 54.848-54.844 78.061-133.209 78.061-225.94v-213.334c0-92.73-23.213-171.098-78.061-225.94-54.842-54.848-133.21-78.061-225.939-78.061h-18.662l-62.402-83.2c-0.001 0 0 0 0 0-21.813-29.082-53.843-47.36-89.601-47.36s-67.787 18.272-89.6 47.36c0 0 0.001 0 0 0l-62.402 83.2h-18.664c-86.183 0-166.541 9.946-223.609 59.878-58.653 51.322-80.391 133.318-80.391 244.122v213.334c0 92.732 23.216 171.098 78.058 225.941zM250.646 619.947c0 26.509 21.491 48 48 48h426.669c26.509 0 48-21.491 48-48s-21.491-48-48-48h-426.669c-26.509 0-48 21.49-48 48zM250.646 406.603c0 26.51 21.491 48 48 48h256c26.51 0 48-21.49 48-48s-21.49-48-48-48h-256c-26.509 0-48 21.491-48 48z" />
<glyph unicode="&#xe93c;" glyph-name="message" d="M183.275 778.006c-30.49-30.49-49.941-80.125-49.941-158.059v-213.334c0-102.529 20.927-148.532 47.608-171.879 28.266-24.73 75.907-36.122 160.392-36.122h21.333c15.22 0 29.417-4.691 40.147-10.010 10.557-5.235 23.188-13.773 32.541-26.464l63.844-85.126c6.347-8.461 11.439-8.96 12.801-8.96s6.452 0.493 12.799 8.96l64.182 85.574c17.044 22.432 43.894 36.026 72.353 36.026h21.331c77.933 0 127.571 19.45 158.061 49.939s49.939 80.125 49.939 158.061v213.334c0 77.934-19.45 127.569-49.939 158.059s-80.128 49.941-158.061 49.941h-341.331c-77.935 0-127.569-19.452-158.059-49.941zM115.392 845.888c54.844 54.843 133.209 78.059 225.942 78.059h341.331c92.736 0 171.098-23.216 225.939-78.059 54.848-54.844 78.061-133.209 78.061-225.94v-213.334c0-92.73-23.213-171.098-78.061-225.94-54.842-54.848-133.21-78.061-225.939-78.061h-18.662l-62.402-83.2c-0.001 0 0 0 0 0-21.813-29.082-53.843-47.36-89.601-47.36s-67.787 18.272-89.6 47.36c0 0 0.001 0 0 0l-62.402 83.2h-18.664c-86.183 0-166.541 9.946-223.609 59.878-58.653 51.322-80.391 133.318-80.391 244.122v213.334c0 92.732 23.216 171.098 78.058 225.941zM618.492 491.942c0 35.347 28.653 64 64.001 64h0.384c35.347 0 64-28.653 64-64s-28.653-64-64-64h-0.384c-35.347 0-64.001 28.654-64.001 64zM447.808 491.942c0 35.347 28.653 64 64 64h0.383c35.346 0 64-28.653 64-64s-28.654-64-64-64h-0.383c-35.347 0-64 28.654-64 64zM277.089 491.942c0 35.347 28.653 64 64 64h0.383c35.346 0 64-28.653 64-64s-28.654-64-64-64h-0.383c-35.347 0-64 28.654-64 64z" />
<glyph unicode="&#xe93d;" glyph-name="messages-3" d="M665.173 430.929v-173.655c0-15.36-1.705-29.865-5.545-43.095-15.79-62.72-67.84-101.97-139.52-101.97h-116.055l-128.853-85.76c-19.2-13.23-44.8 0.85-44.8 23.89v61.87c-43.52 0-79.787 14.505-104.96 39.68-25.6 25.6-40.107 61.865-40.107 105.385v173.655c0 81.065 50.347 136.958 128 144.211 5.547 0.427 11.094 0.854 17.067 0.854h289.708c87.040 0 145.065-58.026 145.065-145.065zM757.333 294.389c54.185 0 99.84 17.92 131.415 49.92 32 31.575 49.92 77.23 49.92 131.414v217.601c0 100.266-81.070 181.333-181.335 181.333h-362.666c-100.266 0-181.334-81.066-181.334-181.333v-32.001c0-11.946 9.387-21.333 21.334-21.333h285.442c115.625 0 209.065-93.44 209.065-209.066v-115.2c0-11.945 9.385-21.335 21.335-21.335h6.825z" />
<glyph unicode="&#xe93e;" glyph-name="microphone" d="M512.426 22.829c-215.040 0-390.4 174.935-390.4 390.4v80.214c0 16.64 13.654 29.866 29.866 29.866s29.867-13.654 29.867-29.866v-80.214c0-182.185 148.053-330.24 330.24-330.24s330.242 148.055 330.242 330.24v80.214c0 16.64 13.65 29.866 29.865 29.866s29.865-13.654 29.865-29.866v-80.214c0.855-215.465-174.505-390.4-389.545-390.4zM512.418 873.171c-143.36 0-260.267-116.906-260.267-260.266v-200.106c0-143.36 116.907-260.265 260.267-260.265 143.358 0 260.268 116.905 260.268 260.265v200.106c0 143.36-116.91 260.266-260.268 260.266zM605.431 506.665c-2.985-11.52-13.655-19.2-25.175-19.2-2.13 0-4.69 0.426-6.825 0.853-43.52 11.947-89.6 11.947-133.12 0-14.080-3.84-28.16 4.267-32 18.347-3.84 13.653 4.267 28.16 18.347 32 52.48 14.506 107.948 14.506 160.428 0 14.080-3.84 22.185-17.92 18.345-32zM641.696 624.851c-3.84-10.666-13.65-17.066-24.32-17.066-2.985 0-5.97 0.426-8.96 1.706-65.28 23.894-136.958 23.894-202.238 0-13.654-5.12-28.587 1.706-33.707 15.36-4.693 13.226 2.134 28.16 15.787 33.28 76.8 27.734 161.278 27.734 237.653 0 13.655-5.12 20.48-20.054 15.785-33.28z" />
<glyph unicode="&#xe93f;" glyph-name="three-dots" d="M512 755.2c-56.555 0-102.4 45.846-102.4 102.4s45.846 102.4 102.4 102.4c56.554 0 102.4-45.846 102.4-102.4s-45.846-102.4-102.4-102.4zM511.999 345.6c-56.554 0-102.4 45.846-102.4 102.4s45.846 102.4 102.4 102.4c56.554 0 102.4-45.846 102.4-102.4s-45.846-102.4-102.401-102.4zM511.999-64c-56.554 0-102.4 45.85-102.4 102.4s45.846 102.4 102.4 102.4c56.555 0 102.4-45.85 102.4-102.4s-45.845-102.4-102.4-102.4z" />
<glyph unicode="&#xe940;" glyph-name="noteboard" d="M682.652 778.666c0-52.906-43.095-96-96-96h-149.335c-26.453 0-50.346 10.667-67.84 28.16s-28.16 41.387-28.16 67.84c0 52.907 43.094 96 96 96h149.335c26.45 0 50.345-10.666 67.84-28.16 17.49-17.493 28.16-41.386 28.16-67.84zM803.412 745.386c-9.81 8.107-20.905 14.507-32.85 19.2-12.375 4.694-24.75-5.12-27.31-17.92-14.505-72.96-78.93-128-156.585-128h-149.334c-42.666 0-82.774 16.64-113.066 46.934-22.187 22.186-37.547 50.346-43.52 80.64-2.56 12.8-15.36 23.040-27.734 17.92-49.494-20.054-82.346-65.28-82.346-156.16v-416.001c0-128 76.373-170.665 170.666-170.665h341.334c94.295 0 170.665 42.665 170.665 170.665v416.001c0 69.546-19.2 112.214-49.92 137.386zM341.334 437.334h170.669c17.49 0 32-14.51 32-32 0-17.495-14.51-32-32-32h-170.669c-17.494 0-32 14.505-32 32 0 17.49 14.506 32 32 32zM682.667 202.664h-341.334c-17.494 0-32 14.51-32 32 0 17.495 14.506 32 32 32h341.334c17.495 0 32-14.505 32-32 0-17.49-14.505-32-32-32z" />
<glyph unicode="&#xe941;" glyph-name="notification-stroke" d="M225.052 579.845c0 158.9 129.1 288 288.001 288 158.473 0 288-129.527 288-288v-123.306c0-9.169 2.074-22.583 6.007-36.924 3.883-14.165 8.9-26.752 13.47-34.748l48.922-81.25c38.639-64.397 7.753-148.284-63.428-171.844-190.46-63.625-395.959-63.62-586.418 0.017l-0.119 0.038c-35.943 12.164-62.898 37.316-74.95 69.867-12.066 32.585-7.961 69.261 11.71 101.956l48.999 81.378c0.011 0.021 0.021 0.038 0.032 0.055 4.672 7.855 9.79 20.399 13.74 34.628 3.962 14.268 6.034 27.669 6.034 36.826v123.306zM513.053 803.845c-123.554 0-224.001-100.447-224.001-224v-123.306c0-16.87-3.474-36.322-8.366-53.948-4.895-17.63-11.922-35.998-20.468-50.334l-0.071-0.119-49.062-81.485c-0.002 0 0.002 0.004 0 0-10.618-17.651-11.21-34.095-6.53-46.737 4.69-12.663 15.904-24.836 35.393-31.445 177.295-59.221 368.555-59.217 545.843 0.017l0.098 0.034c32.038 10.59 46.357 48.704 28.689 78.161-0.004 0 0-0.004 0 0l-49.357 81.967c-8.196 14.208-15.057 32.448-19.883 50.039-4.813 17.553-8.286 36.992-8.286 53.85v123.306c0 123.127-100.873 224-224 224zM404.317 835.146c17.043 43.489 59.357 74.084 108.727 74.084 49.374 0 91.686-30.595 108.727-74.084 4.45-11.352 2.061-24.247-6.161-33.251s-20.847-12.555-32.555-9.155c-11.836 3.436-23.782 6.029-35.887 7.497l-0.119 0.015c-36.881 4.61-71.731 1.874-104.004-7.508-11.712-3.404-24.339 0.144-32.563 9.149s-10.615 21.901-6.165 33.255zM417.049 146.77c0-26.133 10.871-50.522 28.172-67.827h0.004c17.301-17.301 41.69-28.173 67.823-28.173 52.727 0 96 43.273 96 96h64c0-88.073-71.927-160-160-160-43.84 0-84.305 18.142-113.080 46.921-28.777 28.774-46.919 69.239-46.919 113.079h64z" />
<glyph unicode="&#xe942;" glyph-name="notification" d="M825.070 341.759l-42.67 70.83c-8.96 15.785-17.065 45.651-17.065 63.144v107.947c0 100.266-58.88 186.88-143.785 227.414-22.19 39.253-63.15 63.573-110.081 63.573-46.506 0-88.32-25.173-110.506-64.853-83.2-41.387-140.8-127.147-140.8-226.134v-107.947c0-17.493-8.107-47.359-17.066-62.719l-43.094-71.255c-17.066-28.585-20.906-60.16-10.24-89.17 10.24-28.59 34.56-50.775 66.134-61.44 82.773-28.16 169.813-41.815 256.854-41.815s174.080 13.655 256.85 41.385c29.87 9.815 52.91 32.43 64 61.87 11.095 29.44 8.11 61.865-8.53 89.17zM632.63 106.239c-17.92-49.49-65.28-84.905-120.745-84.905-33.706 0-66.986 13.655-90.453 37.975-13.654 12.8-23.894 29.865-29.867 47.36 5.547-0.855 11.094-1.28 17.067-2.135 9.813-1.28 20.053-2.56 30.293-3.415 24.32-2.13 49.067-3.41 73.815-3.41 24.32 0 48.64 1.28 72.53 3.41 8.96 0.855 17.92 1.28 26.455 2.56 6.825 0.855 13.655 1.71 20.905 2.56z" />
<glyph unicode="&#xe943;" glyph-name="numerated_list" d="M344 757.798c0 26.509 21.491 48 48 48h512c26.509 0 48-21.491 48-48s-21.491-48-48-48h-512c-26.509 0-48 21.491-48 48zM344 437.798c0 26.509 21.491 48 48 48h512c26.509 0 48-21.491 48-48s-21.491-48-48-48h-512c-26.509 0-48 21.491-48 48zM344 117.798c0 26.509 21.491 48 48 48h511.949c26.509 0 48-21.491 48-48s-21.491-48-48-48h-511.949c-26.509 0-48 21.491-48 48zM167.625 652.517c-19.844 0-33.125 12.813-33.125 32.656v140h-1.25l-23.906-16.562c-5.625-3.907-9.219-5.156-15.469-5.156-12.344 0-21.875 9.219-21.875 22.344 0 9.219 3.75 16.719 12.5 22.656l40.938 27.344c13.125 8.75 24.531 10 37.344 10 23.906 0 37.969-14.375 37.969-37.031v-163.594c0-19.843-13.281-32.656-33.125-32.656zM110.281 336.454c-21.562 0-30.937 12.031-30.937 28.594 0 12.188 5.625 21.563 18.125 32.031l62.031 53.125c25.313 21.718 32.5 31.562 32.5 45 0 14.219-10.938 24.063-27.031 24.063-11.875 0-20-5.469-28.438-17.656-8.75-12.812-16.719-17.5-29.375-17.5-16.876 0-27.188 9.844-27.188 25.781 0 5.156 0.938 10 2.969 14.688 11.875 26.875 43.594 43.594 82.969 43.594 54.844 0 89.843-27.656 89.843-68.594 0-30.312-15.625-46.093-50.625-76.406l-41.094-35.468v-1.251h71.562c16.563 0 25.938-9.843 25.938-25 0-14.844-9.375-25-25.938-25h-125.313zM170.906 10.201c-52.5 0-80.938 25.005-88.594 46.406-1.406 3.91-2.031 8.282-2.031 11.725 0 16.403 10.938 26.56 28.75 26.56 12.344 0 20.469-4.064 27.032-13.594 8.437-12.346 16.719-19.686 36.406-19.686 16.563 0 28.438 9.997 28.438 23.904 0 16.096-12.344 24.685-35.313 24.685h-1.562c-15.469 0-23.281 8.595-23.281 21.875 0 12.659 7.812 21.722 23.281 21.722h1.562c20.469 0 32.344 8.909 32.344 23.437 0 13.907-10.312 22.656-27.031 22.656-13.437 0-22.969-5.466-29.375-16.717-7.5-13.28-15.625-18.125-30-18.125-18.125 0-27.032 10.624-27.032 25.312 0 4.371 0.625 7.814 2.188 12.186 7.969 21.722 35.469 45.626 83.907 45.626 50.156 0 88.281-21.248 88.281-61.408 0-29.216-21.406-47.341-46.25-52.339v-1.254c34.375-3.59 55.625-22.496 55.625-52.499 0-43.123-37.032-70.47-97.344-70.47z" />
<glyph unicode="&#xe944;" glyph-name="personalcard" d="M150.626 766.706c-21.824-21.824-33.294-62.477-33.294-148.039v-341.333c0-85.564 11.471-126.217 33.294-148.041s62.477-33.293 148.039-33.293h426.667c85.564 0 126.217 11.469 148.041 33.293s33.293 62.477 33.293 148.041v341.333c0 85.562-11.469 126.216-33.293 148.039s-62.477 33.294-148.041 33.294h-426.667c-85.562 0-126.216-11.471-148.039-33.294zM105.372 811.961c42.176 42.176 108.189 52.039 193.294 52.039h426.667c85.103 0 151.117-9.863 193.293-52.039s52.041-108.189 52.041-193.294v-341.333c0-85.103-9.865-151.117-52.041-193.293s-108.19-52.041-193.293-52.041h-426.667c-85.105 0-151.118 9.865-193.294 52.041s-52.039 108.19-52.039 193.293v341.333c0 85.105 9.863 151.118 52.039 193.294zM565.332 618.667c0 17.673 14.327 32 32 32h213.333c17.673 0 32-14.327 32-32s-14.327-32-32-32h-213.333c-17.673 0-32 14.327-32 32zM607.999 448c0 17.673 14.327 32 32 32h170.667c17.673 0 32-14.327 32-32s-14.327-32-32-32h-170.667c-17.673 0-32 14.327-32 32zM693.332 277.333c0 17.673 14.327 32 32 32h85.333c17.673 0 32-14.327 32-32s-14.327-32-32-32h-85.333c-17.673 0-32 14.327-32 32zM253.436 555.523c0 60.324 48.903 109.227 109.227 109.227 60.326 0 109.225-48.904 109.225-109.227 0-60.326-48.901-109.226-109.225-109.226s-109.227 48.9-109.227 109.226zM362.663 600.75c-24.977 0-45.227-20.249-45.227-45.227 0-24.98 20.248-45.226 45.227-45.226s45.225 20.245 45.225 45.226c0 24.979-20.248 45.227-45.225 45.227zM398.118 411.162c77.094-6.989 138.282-67.674 145.732-144.832 1.698-17.591-11.183-33.229-28.774-34.927s-33.229 11.183-34.927 28.774c-4.493 46.519-41.357 83.085-87.914 87.258l-0.327 0.030c-19.195 1.92-38.842 1.929-58.547-0.004l-0.047-0.004c-46.91-4.531-83.656-40.939-88.13-87.279-1.699-17.591-17.336-30.473-34.927-28.774s-30.475 17.335-28.777 34.927c7.472 77.385 68.848 137.399 145.66 144.828 23.754 2.325 47.566 2.338 70.978 0.004z" />
<glyph unicode="&#xe945;" glyph-name="pinch" d="M180.639 889.075c21.423 21.423 56.157 21.423 77.58 0l253.782-253.782 253.782 253.782c21.423 21.423 56.157 21.423 77.58 0s21.423-56.157 0-77.58l-292.571-292.571c-21.423-21.423-56.157-21.423-77.58 0l-292.571 292.571c-21.423 21.423-21.423 56.157 0 77.58zM180.639 84.501l292.571 292.574c21.423 21.423 56.157 21.423 77.58 0l292.571-292.574c21.423-21.424 21.423-56.152 0-77.575s-56.157-21.424-77.58 0l-253.782 253.779-253.782-253.779c-21.423-21.424-56.157-21.424-77.58 0s-21.423 56.152 0 77.575z" />
<glyph unicode="&#xe946;" glyph-name="search-status" d="M565.334 746.666c0 17.673 14.327 32 32 32h256c17.673 0 32-14.327 32-32s-14.327-32-32-32h-256c-17.673 0-32 14.327-32 32zM565.334 618.666c0 17.673 14.327 32 32 32h128c17.673 0 32-14.327 32-32s-14.327-32-32-32h-128c-17.673 0-32 14.327-32 32zM490.668 842.666c-206.327 0-373.333-167.006-373.333-373.333s167.006-373.333 373.333-373.333c206.327 0 373.333 167.006 373.333 373.333 0 17.673 14.327 32 32 32s32-14.327 32-32c0-241.673-195.661-437.333-437.333-437.333s-437.333 195.661-437.333 437.333c0 241.673 195.66 437.333 437.333 437.333 17.673 0 32-14.327 32-32s-14.327-32-32-32zM830.708 129.292c12.497 12.497 32.755 12.497 45.252 0l85.333-85.333c12.497-12.497 12.497-32.755 0-45.252s-32.755-12.497-45.252 0l-85.333 85.333c-12.497 12.497-12.497 32.755 0 45.252z" />
<glyph unicode="&#xe947;" glyph-name="sort" d="M89.6 661.337c0 21.208 17.192 38.4 38.4 38.4h768c21.207 0 38.4-17.192 38.4-38.4s-17.193-38.4-38.4-38.4h-768c-21.208 0-38.4 17.192-38.4 38.4zM217.6 447.999c0 21.208 17.192 38.4 38.4 38.4h512c21.207 0 38.4-17.192 38.4-38.4s-17.193-38.4-38.4-38.4h-512c-21.208 0-38.4 17.193-38.4 38.4zM388.275 234.664c0 21.207 17.192 38.4 38.4 38.4h170.665c21.207 0 38.4-17.193 38.4-38.4s-17.193-38.4-38.4-38.4h-170.665c-21.208 0-38.4 17.193-38.4 38.4z" />
<glyph unicode="&#xe948;" glyph-name="spinner" d="M668.749 826.42c-74.849 31.002-157.203 39.113-236.658 23.309s-152.438-54.815-209.722-112.099c-57.284-57.284-96.294-130.268-112.099-209.722s-7.693-161.808 23.309-236.657c31.002-74.844 83.501-138.813 150.859-183.818l0.002-0.005c67.357-45.005 146.548-69.028 227.56-69.028v-102.4c-101.262 0-200.252 30.024-284.451 86.287-84.198 56.259-149.823 136.223-188.575 229.775h-0.001c-38.751 93.558-48.891 196.505-29.135 295.823v0.001c19.756 99.318 68.519 190.548 140.124 262.152s162.834 120.368 262.152 140.124h0.001c99.318 19.756 202.265 9.616 295.823-29.135v-0.001c93.553-38.752 173.517-104.377 229.775-188.575 56.264-84.198 86.287-183.188 86.287-284.451h-102.4c0 81.012-24.023 160.203-69.028 227.56l-0.005 0.002c-45.005 67.358-108.974 119.857-183.818 150.859z" />
<glyph unicode="&#xe949;" glyph-name="task-list" d="M853.332 138.241h-386.988c-19.2 0-34.987 15.785-34.987 34.985s15.787 34.99 34.987 34.99h386.988c19.2 0 34.985-15.79 34.985-34.99 0-19.625-15.785-34.985-34.985-34.985zM853.332 406.616h-386.988c-19.2 0-34.987 15.785-34.987 34.985s15.787 34.988 34.987 34.988h386.988c19.2 0 34.985-15.786 34.985-34.988 0-19.2-15.785-34.985-34.985-34.985zM853.332 675.415h-386.988c-19.2 0-34.987 15.787-34.987 34.987s15.787 34.986 34.987 34.986h386.988c19.2 0 34.985-15.786 34.985-34.986s-15.785-34.987-34.985-34.987zM209.495 617.387c-9.386 0-18.346 3.84-24.746 10.24l-38.827 38.826c-13.653 13.654-13.653 35.84 0 49.494s35.84 13.653 49.494 0l14.080-14.080 91.306 91.306c13.654 13.654 35.84 13.654 49.494 0s13.654-35.84 0-49.494l-116.054-116.053c-6.826-6.4-15.36-10.24-24.746-10.24zM209.495 348.586c-8.96 0-17.92 3.415-24.746 10.24l-38.827 38.83c-13.653 13.65-13.653 35.84 0 49.49 13.654 13.654 35.84 13.654 49.494 0l14.080-14.080 91.306 91.308c13.654 13.654 35.84 13.654 49.494 0s13.654-35.84 0-49.494l-116.054-116.054c-6.826-6.825-15.786-10.24-24.746-10.24zM209.495 92.586c-8.96 0-17.92 3.415-24.746 10.24l-38.827 38.825c-13.653 13.655-13.653 35.84 0 49.495s35.84 13.655 49.494 0l14.080-14.080 91.306 91.31c13.654 13.65 35.84 13.65 49.494 0 13.654-13.655 13.654-35.845 0-49.495l-116.054-116.055c-6.826-6.825-15.786-10.24-24.746-10.24z" />
<glyph unicode="&#xe94a;" glyph-name="text_t" d="M202.239 772.049c-22.282 0-40.319-17.913-40.319-40.32v-77.653c0-26.509-21.491-48-48-48s-48 21.491-48 48v77.653c0 75.727 61.32 136.32 136.319 136.32h619.521c75.731 0 136.32-61.322 136.32-136.32v-77.653c0-26.509-21.491-48-48-48s-48 21.491-48 48v77.653c0 22.282-17.914 40.32-40.32 40.32h-619.521zM512.013 832.643c26.509 0 48-21.491 48-48v-708.692c0-26.509-21.491-48-48-48s-48 21.491-48 48v708.692c0 26.509 21.491 48 48 48zM295.92 75.957c0 26.509 21.49 48 48 48h336.215c26.509 0 48-21.491 48-48s-21.491-48-48-48h-336.215c-26.51 0-48 21.491-48 48z" />
<glyph unicode="&#xe94b;" glyph-name="text-bold" d="M293.333 805.33c-20.424 0-37.333-16.909-37.333-37.333v-272h255.787c85.277 0 154.669 69.391 154.669 154.667s-69.392 154.666-154.669 154.666h-218.454zM160 767.997c0 73.443 59.89 133.333 133.333 133.333h218.454c138.292 0 250.669-112.369 250.669-250.666s-112.378-250.667-250.669-250.667h-303.787c-26.51 0-48 21.491-48 48v320zM160 448.002c0 26.509 21.49 48 48 48h405.333c138.294 0 250.666-112.371 250.666-250.669 0-138.291-112.371-250.662-250.666-250.662h-320c-73.442 0-133.333 59.891-133.333 133.331v320zM256 400.002v-272c0-20.422 16.909-37.331 37.333-37.331h320c85.277 0 154.666 69.389 154.666 154.662 0 85.279-69.389 154.669-154.666 154.669h-357.333z" />
<glyph unicode="&#xe94c;" glyph-name="text-italic" d="M362.668 832c0 26.509 21.491 48 48 48h394.664c26.509 0 48-21.491 48-48s-21.491-48-48-48h-394.664c-26.509 0-48 21.491-48 48zM170.668 64c0 26.509 21.491 48 48 48h394.667c26.51 0 47.997-21.491 47.997-48s-21.487-48-47.997-48h-394.667c-26.509 0-48 21.491-48 48zM619.842 878.567c25.715-6.429 41.357-32.49 34.925-58.209l-192-768c-6.429-25.715-32.49-41.357-58.209-34.925s-41.354 32.493-34.925 58.208l192 768.001c6.429 25.718 32.49 41.354 58.209 34.925z" />
<glyph unicode="&#xe94d;" glyph-name="text-underline" d="M165.335 64c0 26.509 21.49 48 48 48h597.331c26.509 0 48-21.491 48-48s-21.491-48-48-48h-597.331c-26.51 0-48 21.491-48 48zM213.335 880c26.509 0 48-21.491 48-48v-298.667c0-138.61 112.055-250.664 250.666-250.664 138.614 0 250.665 112.054 250.665 250.664v298.667c0 26.509 21.491 48 48 48s48-21.491 48-48v-298.667c0-191.629-155.034-346.664-346.665-346.664-191.629 0-346.666 155.034-346.666 346.664v298.667c0 26.509 21.49 48 48 48z" />
<glyph unicode="&#xe94e;" glyph-name="textalign-center" d="M80 768c0 26.509 21.491 48 48 48h768c26.509 0 48-21.491 48-48s-21.491-48-48-48h-768c-26.509 0-48 21.491-48 48zM261.75 554.672c0 26.509 21.491 48 48 48h404.477c26.509 0 48-21.491 48-48s-21.491-48-48-48h-404.477c-26.509 0-48 21.49-48 48zM80 341.328c0 26.51 21.491 48 48 48h768c26.509 0 48-21.49 48-48 0-26.512-21.491-47.997-48-47.997h-768c-26.509 0-48 21.485-48 47.997zM261.75 128c0 26.509 21.491 48 48 48h404.477c26.509 0 48-21.491 48-48s-21.491-48-48-48h-404.477c-26.509 0-48 21.491-48 48z" />
<glyph unicode="&#xe94f;" glyph-name="textalign-left" d="M80 768c0 26.509 21.491 48 48 48h768c26.509 0 48-21.491 48-48s-21.491-48-48-48h-768c-26.509 0-48 21.491-48 48zM80 554.672c0 26.509 21.491 48 48 48h404.053c26.509 0 48-21.491 48-48s-21.491-48-48-48h-404.053c-26.509 0-48 21.49-48 48zM80 341.328c0 26.51 21.491 48 48 48h768c26.509 0 48-21.49 48-48 0-26.512-21.491-47.997-48-47.997h-768c-26.509 0-48 21.485-48 47.997zM80 128c0 26.509 21.491 48 48 48h404.053c26.509 0 48-21.491 48-48s-21.491-48-48-48h-404.053c-26.509 0-48 21.491-48 48z" />
<glyph unicode="&#xe950;" glyph-name="textalign-right" d="M80 768c0 26.509 21.491 48 48 48h768c26.509 0 48-21.491 48-48s-21.491-48-48-48h-768c-26.509 0-48 21.491-48 48zM443.937 554.672c0 26.509 21.491 48 48 48h404.056c26.509 0 48-21.491 48-48s-21.491-48-48-48h-404.056c-26.509 0-48 21.49-48 48zM80 341.328c0 26.51 21.491 48 48 48h768c26.509 0 48-21.49 48-48 0-26.512-21.491-47.997-48-47.997h-768c-26.509 0-48 21.485-48 47.997zM443.937 128c0 26.509 21.491 48 48 48h404.056c26.509 0 48-21.491 48-48s-21.491-48-48-48h-404.056c-26.509 0-48 21.491-48 48z" />
<glyph unicode="&#xe951;" glyph-name="user" d="M512.020 458.661c117.816 0 213.33 95.514 213.33 213.335s-95.514 213.333-213.33 213.333c-117.822 0-213.335-95.513-213.335-213.333s95.513-213.335 213.335-213.335zM512 352.001c-213.76 0-387.84-143.36-387.84-320 0-11.945 9.387-21.33 21.334-21.33h733.011c11.95 0 21.335 9.385 21.335 21.33 0 176.64-174.080 320-387.84 320z" />
<glyph unicode="&#xe952;" glyph-name="vector_arrow_down" d="M940.144 772.706l-606.565-606.566h554.846v-146.286h-804.571v804.571h146.286v-554.846l606.566 606.566 103.439-103.44z" />
<glyph unicode="&#xe953;" glyph-name="vector_arrow_up" d="M690.421 729.859h-554.846v146.286h804.571v-804.571h-146.286v554.846l-606.566-606.565-103.44 103.439 606.566 606.566z" />
<glyph unicode="&#xe954;" glyph-name="video-slash" d="M756.803 637.122c0.43-2.986 0.43-6.4 0-9.386 0 2.986-0.425 5.973-0.425 8.96l0.425 0.426zM737.193 680.221l-573.865-573.865c-59.733 37.97-83.2 105.81-83.2 171.090v341.336c0 145.92 56.747 202.667 202.667 202.667h255.998c123.31 0 182.615-40.534 198.4-141.227zM912.963 864.96c-12.8 12.8-33.71 12.8-46.51 0l-787.625-787.625c-12.8-12.8-12.8-33.71 0-46.51 6.4-5.97 14.934-9.385 23.040-9.385 8.534 0 16.64 3.415 23.040 9.815l788.055 787.625c12.8 12.8 12.8 33.28 0 46.080zM954.773 602.56v-308.905c0-61.015-29.865-85.335-46.935-94.295-8.105-4.265-20.905-8.96-36.69-8.96-18.35 0-40.96 5.975-67.415 24.745l-63.145 44.375c-2.99-94.295-32.855-148.055-100.695-170.665-27.305-9.815-61.015-14.080-101.545-14.080h-256.002c-10.24 0-20.054 0.425-30.294 1.705l628.905 628.48c11.095-0.854 20.055-4.266 26.88-8.106 17.070-8.96 46.935-33.28 46.935-94.294z" />
<glyph unicode="&#xe955;" glyph-name="add" horiz-adv-x="983" d="M491.52 724.48c16.966 0 30.72-13.754 30.72-30.72v-215.040h215.040c16.966 0 30.72-13.754 30.72-30.72s-13.754-30.72-30.72-30.72h-215.040v-215.040c0-16.966-13.754-30.72-30.72-30.72s-30.72 13.754-30.72 30.72v215.040h-215.040c-16.966 0-30.72 13.754-30.72 30.72s13.754 30.72 30.72 30.72h215.040v215.040c0 16.966 13.754 30.72 30.72 30.72z" />
<glyph unicode="&#xe958;" glyph-name="video" d="M902.402 696.747c-17.495 9.387-54.19 19.2-104.11-15.786l-62.72-44.374c-4.69 132.694-62.29 184.747-202.24 184.747h-255.998c-145.92 0-202.666-56.747-202.666-202.667v-341.336c0-98.13 53.333-202.665 202.666-202.665h255.998c139.95 0 197.55 52.055 202.24 184.745l62.72-44.37c26.455-18.775 49.495-24.75 67.84-24.75 15.79 0 28.16 4.695 36.27 8.96 17.49 8.96 46.93 33.28 46.93 94.295v308.908c0 61.013-29.44 85.333-46.93 94.293zM469.334 474.454c-43.946 0-80.214 35.84-80.214 80.214s36.267 80.213 80.214 80.213c43.949 0 80.214-35.84 80.214-80.213s-36.265-80.214-80.214-80.214z" />
<glyph unicode="&#xe959;" glyph-name="wheel-arrow" d="M512 960l-307.2-409.6h614.4l-307.2 409.6zM512-64l307.2 409.6h-614.4l307.2-409.6z" />
</font>
</defs>
</svg>
