<svg width="67" height="12" viewBox="0 0 67 12" fill="none" xmlns="http://www.w3.org/2000/svg">
<path d="M65.0756 12.0005C64.116 12.0005 63.3684 11.759 62.833 11.276C62.2976 10.7829 62.0299 10.0534 62.0299 9.08733V1.96289H64.3938V9.05714C64.3938 9.39928 64.4847 9.66594 64.6665 9.85713C64.8483 10.0383 65.0958 10.1288 65.409 10.1288C65.7828 10.1288 66.101 10.0282 66.3636 9.82694L67.0001 11.4873C66.7576 11.6584 66.4647 11.7892 66.1212 11.8797C65.7878 11.9603 65.4393 12.0005 65.0756 12.0005ZM60.7722 5.75152V3.94022H66.4243V5.75152H60.7722Z" fill="#F2F5F7"/>
<path d="M56.9138 11.9999C56.0349 11.9999 55.252 11.8238 54.5651 11.4716C53.8782 11.1093 53.3377 10.6112 52.9437 9.97724C52.5599 9.34328 52.3679 8.6238 52.3679 7.81877C52.3679 7.00369 52.5599 6.2842 52.9437 5.66031C53.3377 5.02636 53.8782 4.53328 54.5651 4.18108C55.252 3.81882 56.0349 3.6377 56.9138 3.6377C57.7725 3.6377 58.52 3.81882 59.1564 4.18108C59.7928 4.53328 60.2626 5.04145 60.5656 5.70559L58.7321 6.68671C58.52 6.30433 58.2523 6.02257 57.929 5.84144C57.6159 5.66031 57.2724 5.56975 56.8986 5.56975C56.4946 5.56975 56.1309 5.66031 55.8076 5.84144C55.4844 6.02257 55.2268 6.27917 55.0348 6.61124C54.853 6.94331 54.7621 7.34582 54.7621 7.81877C54.7621 8.29172 54.853 8.69424 55.0348 9.02631C55.2268 9.35838 55.4844 9.61498 55.8076 9.79611C56.1309 9.97724 56.4946 10.0678 56.8986 10.0678C57.2724 10.0678 57.6159 9.98227 57.929 9.8112C58.2523 9.63007 58.52 9.34328 58.7321 8.95084L60.5656 9.94705C60.2626 10.6011 59.7928 11.1093 59.1564 11.4716C58.52 11.8238 57.7725 11.9999 56.9138 11.9999Z" fill="#F2F5F7"/>
<path d="M40.5225 11.8784L45.2502 1.3125H47.6746L52.4175 11.8784H49.8415L45.9624 2.55022H46.9321L43.0378 11.8784H40.5225ZM42.8863 9.61429L43.5379 7.7577H48.9929L49.6597 9.61429H42.8863Z" fill="#F2F5F7"/>
<path d="M35.0612 11.9993C34.2935 11.9993 33.6015 11.8283 32.9853 11.4861C32.3691 11.1339 31.8791 10.6459 31.5155 10.022C31.1619 9.3981 30.9851 8.66352 30.9851 7.81824C30.9851 6.96291 31.1619 6.2233 31.5155 5.5994C31.8791 4.97551 32.3691 4.4925 32.9853 4.15037C33.6015 3.80823 34.2935 3.63717 35.0612 3.63717C35.7482 3.63717 36.3492 3.78811 36.8644 4.08999C37.3796 4.39187 37.7787 4.84973 38.0615 5.46356C38.3444 6.07739 38.4858 6.86228 38.4858 7.81824C38.4858 8.76414 38.3494 9.54904 38.0767 10.1729C37.8039 10.7868 37.4099 11.2446 36.8947 11.5465C36.3896 11.8484 35.7785 11.9993 35.0612 11.9993ZM35.4704 10.0673C35.8542 10.0673 36.2028 9.97671 36.5159 9.79558C36.8291 9.61445 37.0766 9.35785 37.2584 9.02578C37.4503 8.68364 37.5463 8.28113 37.5463 7.81824C37.5463 7.34529 37.4503 6.94278 37.2584 6.61071C37.0766 6.27864 36.8291 6.02204 36.5159 5.84091C36.2028 5.65978 35.8542 5.56922 35.4704 5.56922C35.0764 5.56922 34.7228 5.65978 34.4097 5.84091C34.0965 6.02204 33.844 6.27864 33.652 6.61071C33.4702 6.94278 33.3793 7.34529 33.3793 7.81824C33.3793 8.28113 33.4702 8.68364 33.652 9.02578C33.844 9.35785 34.0965 9.61445 34.4097 9.79558C34.7228 9.97671 35.0764 10.0673 35.4704 10.0673ZM37.6069 11.8786V10.2182L37.6524 7.80315L37.5009 5.40318V0.678711H39.8647V11.8786H37.6069Z" fill="#F2F5F7"/>
<path d="M27.3062 11.8791V3.75844H29.6701V11.8791H27.3062ZM28.4881 2.62638C28.0538 2.62638 27.7002 2.5006 27.4274 2.24903C27.1547 1.99746 27.0183 1.68551 27.0183 1.31319C27.0183 0.940869 27.1547 0.628923 27.4274 0.377354C27.7002 0.125785 28.0538 0 28.4881 0C28.9225 0 29.2761 0.120753 29.5488 0.36226C29.8216 0.593704 29.958 0.895587 29.958 1.26791C29.958 1.66036 29.8216 1.9874 29.5488 2.24903C29.2862 2.5006 28.9326 2.62638 28.4881 2.62638Z" fill="#F2F5F7"/>
<path d="M22.6557 11.9999C21.7769 11.9999 20.994 11.8238 20.307 11.4716C19.6201 11.1093 19.0797 10.6112 18.6857 9.97724C18.3018 9.34328 18.1099 8.6238 18.1099 7.81877C18.1099 7.00369 18.3018 6.2842 18.6857 5.66031C19.0797 5.02636 19.6201 4.53328 20.307 4.18108C20.994 3.81882 21.7769 3.6377 22.6557 3.6377C23.5144 3.6377 24.2619 3.81882 24.8984 4.18108C25.5348 4.53328 26.0045 5.04145 26.3076 5.70559L24.4741 6.68671C24.2619 6.30433 23.9942 6.02257 23.671 5.84144C23.3578 5.66031 23.0144 5.56975 22.6406 5.56975C22.2365 5.56975 21.8728 5.66031 21.5496 5.84144C21.2263 6.02257 20.9687 6.27917 20.7768 6.61124C20.5949 6.94331 20.504 7.34582 20.504 7.81877C20.504 8.29172 20.5949 8.69424 20.7768 9.02631C20.9687 9.35838 21.2263 9.61498 21.5496 9.79611C21.8728 9.97724 22.2365 10.0678 22.6406 10.0678C23.0144 10.0678 23.3578 9.98227 23.671 9.8112C23.9942 9.63007 24.2619 9.34328 24.4741 8.95084L26.3076 9.94705C26.0045 10.6011 25.5348 11.1093 24.8984 11.4716C24.2619 11.8238 23.5144 11.9999 22.6557 11.9999Z" fill="#F2F5F7"/>
<path d="M12.0557 11.9992C11.3789 11.9992 10.7728 11.8684 10.2374 11.6068C9.71208 11.3451 9.30295 10.9477 9.00999 10.4143C8.71703 9.87094 8.57056 9.18164 8.57056 8.34643V3.75781H10.9344V7.99927C10.9344 8.67348 11.0758 9.17158 11.3587 9.49359C11.6516 9.80554 12.0608 9.96151 12.5861 9.96151C12.9497 9.96151 13.273 9.88604 13.5559 9.7351C13.8387 9.57409 14.061 9.33259 14.2226 9.01058C14.3842 8.67851 14.465 8.26593 14.465 7.77286V3.75781H16.8289V11.8785H14.5863V9.64453L14.9954 10.2936C14.7226 10.8571 14.3186 11.2848 13.7832 11.5766C13.2579 11.8583 12.682 11.9992 12.0557 11.9992Z" fill="#F2F5F7"/>
<path d="M0 11.8784V1.3125H2.45477V9.88598H7.77344V11.8784H0Z" fill="#F2F5F7"/>
</svg>
